<svg width="459" height="792" viewBox="0 0 459 792" fill="none" xmlns="http://www.w3.org/2000/svg">
<path d="M192.588 21.4L186.988 31.4H181.388L175.788 21.4V37H168.588V9H176.188L184.188 23.8L192.188 9H199.788V37H192.588V21.4ZM228.803 37H206.603V9H228.803V14.6H213.803V20H225.603V25.6H213.803V31.4H228.803V37ZM258.394 37H250.794L241.194 20.2V37H233.994V9H241.594L251.194 25.8V9H258.394V37ZM283.213 9H290.413V29.4C290.413 32.2 289.773 34.24 288.493 35.52C287.239 36.7733 285.213 37.4 282.413 37.4H273.213C270.413 37.4 268.373 36.7733 267.093 35.52C265.839 34.24 265.213 32.2 265.213 29.4V9H272.413V29.4C272.413 31 273.213 31.8 274.813 31.8H280.813C282.413 31.8 283.213 31 283.213 29.4V9Z" fill="white"/>
<path fill-rule="evenodd" clip-rule="evenodd" d="M175.1 126.085C173.762 123.69 173 120.934 173 118.001V130.515C173 139.73 180.522 147.201 189.8 147.201L270.2 147.2C279.478 147.2 287 139.729 287 130.514V118C287 120.933 286.238 123.689 284.9 126.084V130.514C284.9 138.578 278.319 145.114 270.2 145.114L189.8 145.115C181.681 145.115 175.1 138.578 175.1 130.515V126.085Z" fill="white"/>
<path fill-rule="evenodd" clip-rule="evenodd" d="M270.314 74.0857H189.686C181.622 74.0857 175.086 80.6224 175.086 88.6857V118.743C175.086 126.806 181.622 133.343 189.686 133.343H270.314C278.378 133.343 284.914 126.806 284.914 118.743V88.6857C284.914 80.6224 278.378 74.0857 270.314 74.0857ZM189.686 72C180.47 72 173 79.4704 173 88.6857V118.743C173 127.958 180.47 135.429 189.686 135.429H270.314C279.53 135.429 287 127.958 287 118.743V88.6857C287 79.4704 279.53 72 270.314 72H189.686Z" fill="white"/>
<path d="M219.138 111H205.818V94.2H219.138V97.56H210.138V100.8H217.218V104.16H210.138V107.64H219.138V111ZM221.749 107.52C226.133 107.76 229.101 107.88 230.653 107.88C231.021 107.88 231.309 107.776 231.517 107.568C231.741 107.344 231.853 107.048 231.853 106.68V104.52H226.333C224.653 104.52 223.429 104.144 222.661 103.392C221.909 102.624 221.533 101.4 221.533 99.72V99C221.533 97.32 221.909 96.104 222.661 95.352C223.429 94.584 224.653 94.2 226.333 94.2H234.757V97.56H227.293C226.333 97.56 225.853 98.04 225.853 99V99.48C225.853 100.44 226.333 100.92 227.293 100.92H231.613C233.181 100.92 234.333 101.288 235.069 102.024C235.805 102.76 236.173 103.912 236.173 105.48V106.68C236.173 108.248 235.805 109.4 235.069 110.136C234.333 110.872 233.181 111.24 231.613 111.24C230.797 111.24 229.933 111.224 229.021 111.192L226.812 111.096C225.181 111.016 223.493 110.904 221.749 110.76V107.52ZM251.291 114.84C250.171 115 249.099 115.08 248.075 115.08C247.051 115.08 246.211 114.752 245.555 114.096C244.899 113.44 244.571 112.568 244.571 111.48V111.24H243.851C242.171 111.24 240.947 110.864 240.179 110.112C239.427 109.344 239.051 108.12 239.051 106.44V98.76C239.051 97.08 239.427 95.864 240.179 95.112C240.947 94.344 242.171 93.96 243.851 93.96H249.851C251.531 93.96 252.747 94.344 253.499 95.112C254.267 95.864 254.651 97.08 254.651 98.76V106.44C254.651 108.12 254.267 109.344 253.499 110.112C252.747 110.864 251.531 111.24 249.851 111.24H248.651V111.48C248.651 111.72 248.731 111.92 248.891 112.08C249.051 112.24 249.251 112.32 249.491 112.32H251.291V114.84ZM250.331 98.76C250.331 97.8 249.851 97.32 248.891 97.32H244.811C243.851 97.32 243.371 97.8 243.371 98.76V106.44C243.371 107.4 243.851 107.88 244.811 107.88H248.891C249.851 107.88 250.331 107.4 250.331 106.44V98.76Z" fill="white"/>
<path d="M125.37 264.201H117.77L108.17 247.401V264.201H100.97V236.201H108.57L118.17 253.001V236.201H125.37V264.201ZM137.189 264.201H129.389L139.989 236.201H147.989L158.589 264.201H150.789L148.989 259.201H138.989L137.189 264.201ZM140.789 254.001H147.189L143.989 244.601L140.789 254.001ZM171.575 255.801L178.375 236.201H186.175L175.575 264.201H167.575L156.975 236.201H164.775L171.575 255.801ZM212.373 264.201H190.173V236.201H212.373V241.801H197.373V247.201H209.173V252.801H197.373V258.601H212.373V264.201ZM241.564 263.601C235.324 264.268 229.591 264.601 224.364 264.601C221.751 264.601 219.831 263.988 218.604 262.761C217.377 261.535 216.764 259.615 216.764 257.001V244.201C216.764 241.401 217.391 239.375 218.644 238.121C219.924 236.841 221.964 236.201 224.764 236.201H239.164V241.801H226.364C224.764 241.801 223.964 242.601 223.964 244.201V257.001C223.964 257.615 224.137 258.108 224.484 258.481C224.857 258.828 225.351 259.001 225.964 259.001C229.031 259.001 231.831 258.935 234.364 258.801V253.001H229.164V248.201H241.564V263.601ZM252.572 264.201H244.772L255.372 236.201H263.372L273.972 264.201H266.172L264.372 259.201H254.372L252.572 264.201ZM256.172 254.001H262.572L259.372 244.601L256.172 254.001ZM298.789 263.801C292.842 264.335 287.909 264.601 283.989 264.601C281.376 264.601 279.456 263.988 278.229 262.761C277.002 261.535 276.389 259.615 276.389 257.001V244.201C276.389 241.401 277.016 239.375 278.269 238.121C279.549 236.841 281.589 236.201 284.389 236.201H298.789V241.801H285.989C284.389 241.801 283.589 242.601 283.589 244.201V257.001C283.589 257.615 283.762 258.108 284.109 258.481C284.482 258.828 284.949 259.001 285.509 259.001C286.069 259.001 286.682 259.001 287.349 259.001C288.016 258.975 288.709 258.948 289.429 258.921C290.149 258.895 290.869 258.868 291.589 258.841C292.336 258.815 293.282 258.761 294.429 258.681C295.602 258.601 297.056 258.508 298.789 258.401V263.801ZM289.189 263.401V265.001H289.589C290.896 265.001 291.882 265.321 292.549 265.961C293.242 266.601 293.589 267.481 293.589 268.601C293.589 269.721 293.242 270.601 292.549 271.241C291.882 271.881 290.896 272.201 289.589 272.201H284.789V269.601H288.789C289.722 269.601 290.189 269.268 290.189 268.601C290.189 267.935 289.722 267.601 288.789 267.601H285.789V263.401H289.189ZM308.994 264.201H301.194L311.794 236.201H319.794L330.394 264.201H322.594L320.794 259.201H310.794L308.994 264.201ZM312.594 254.001H318.994L315.794 244.601L312.594 254.001ZM318.194 230.561C319.047 230.561 319.714 230.028 320.194 228.961L322.794 230.561C322.554 231.415 322.234 232.161 321.834 232.801C320.9 234.375 319.687 235.161 318.194 235.161C317.634 235.161 317.14 235.055 316.714 234.841C316.314 234.628 315.927 234.401 315.554 234.161C315.207 233.921 314.86 233.695 314.514 233.481C314.167 233.268 313.794 233.161 313.394 233.161C312.54 233.161 311.874 233.695 311.394 234.761L308.794 233.161C309.22 231.508 310.007 230.215 311.154 229.281C311.74 228.801 312.394 228.561 313.114 228.561C313.86 228.561 314.434 228.668 314.834 228.881C315.26 229.095 315.647 229.321 315.994 229.561C316.367 229.801 316.727 230.028 317.074 230.241C317.42 230.455 317.794 230.561 318.194 230.561ZM351.611 243.801C351.611 242.201 350.811 241.401 349.211 241.401H342.411C340.811 241.401 340.011 242.201 340.011 243.801V256.601C340.011 258.201 340.811 259.001 342.411 259.001H349.211C350.811 259.001 351.611 258.201 351.611 256.601V243.801ZM358.811 256.601C358.811 259.401 358.171 261.441 356.891 262.721C355.638 263.975 353.611 264.601 350.811 264.601H340.811C338.011 264.601 335.971 263.975 334.691 262.721C333.438 261.441 332.811 259.401 332.811 256.601V243.801C332.811 241.001 333.438 238.975 334.691 237.721C335.971 236.441 338.011 235.801 340.811 235.801H350.811C353.611 235.801 355.638 236.441 356.891 237.721C358.171 238.975 358.811 241.001 358.811 243.801V256.601Z" fill="white"/>
<path fill-rule="evenodd" clip-rule="evenodd" d="M195.775 373.566C194.644 371.475 194 369.069 194 366.509V377.433C194 385.478 200.358 391.999 208.2 391.999H250.8C258.642 391.999 265 385.478 265 377.433V366.509C265 369.069 264.356 371.475 263.225 373.566V377.433C263.225 384.472 257.662 390.179 250.8 390.179H208.2C201.338 390.179 195.775 384.472 195.775 377.433V373.566Z" fill="white"/>
<path fill-rule="evenodd" clip-rule="evenodd" d="M250.8 311.774H208.2C201.338 311.774 195.775 317.337 195.775 324.199V366.799C195.775 373.661 201.338 379.224 208.2 379.224H250.8C257.662 379.224 263.225 373.661 263.225 366.799V324.199C263.225 317.337 257.662 311.774 250.8 311.774ZM208.2 309.999C200.358 309.999 194 316.357 194 324.199V366.799C194 374.641 200.358 380.999 208.2 380.999H250.8C258.642 380.999 265 374.641 265 366.799V324.199C265 316.357 258.642 309.999 250.8 309.999H208.2Z" fill="white"/>
<path d="M228.327 333.51C229.003 332.658 230.265 332.658 230.941 333.51L247.131 353.891C248.037 355.03 247.252 356.744 245.824 356.744H213.444C212.016 356.744 211.232 355.03 212.137 353.891L228.327 333.51Z" fill="white"/>
<path fill-rule="evenodd" clip-rule="evenodd" d="M98.775 475.566C97.644 473.475 97 471.069 97 468.509V479.433C97 487.478 103.358 493.999 111.2 493.999H153.8C161.642 493.999 168 487.478 168 479.433V468.509C168 471.069 167.356 473.475 166.225 475.566V479.433C166.225 486.472 160.662 492.179 153.8 492.179H111.2C104.338 492.179 98.775 486.472 98.775 479.433V475.566Z" fill="white"/>
<path fill-rule="evenodd" clip-rule="evenodd" d="M153.8 413.774H111.2C104.338 413.774 98.775 419.337 98.775 426.199V468.799C98.775 475.661 104.338 481.224 111.2 481.224H153.8C160.662 481.224 166.225 475.661 166.225 468.799V426.199C166.225 419.337 160.662 413.774 153.8 413.774ZM111.2 411.999C103.358 411.999 97 418.357 97 426.199V468.799C97 476.641 103.358 482.999 111.2 482.999H153.8C161.642 482.999 168 476.641 168 468.799V426.199C168 418.357 161.642 411.999 153.8 411.999H111.2Z" fill="white"/>
<path d="M119.005 448.659C118.18 447.983 118.18 446.724 119.005 446.048L138.738 429.877C139.842 428.973 141.501 429.757 141.501 431.182L141.501 463.525C141.501 464.951 139.842 465.735 138.738 464.83L119.005 448.659Z" fill="white"/>
<path fill-rule="evenodd" clip-rule="evenodd" d="M195.775 475.566C194.644 473.475 194 471.069 194 468.509V479.433C194 487.478 200.358 493.999 208.2 493.999H250.8C258.642 493.999 265 487.478 265 479.433V468.509C265 471.069 264.356 473.475 263.225 475.566V479.433C263.225 486.472 257.662 492.179 250.8 492.179H208.2C201.338 492.179 195.775 486.472 195.775 479.433V475.566Z" fill="white"/>
<path fill-rule="evenodd" clip-rule="evenodd" d="M250.8 413.774H208.2C201.338 413.774 195.775 419.337 195.775 426.199V468.799C195.775 475.661 201.338 481.224 208.2 481.224H250.8C257.662 481.224 263.225 475.661 263.225 468.799V426.199C263.225 419.337 257.662 413.774 250.8 413.774ZM208.2 411.999C200.358 411.999 194 418.357 194 426.199V468.799C194 476.641 200.358 482.999 208.2 482.999H250.8C258.642 482.999 265 476.641 265 468.799V426.199C265 418.357 258.642 411.999 250.8 411.999H208.2Z" fill="white"/>
<path d="M230.428 460.457C229.761 461.289 228.517 461.289 227.85 460.457L211.885 440.546C210.992 439.432 211.766 437.758 213.173 437.758L245.104 437.758C246.512 437.758 247.286 439.432 246.393 440.546L230.428 460.457Z" fill="white"/>
<path fill-rule="evenodd" clip-rule="evenodd" d="M292.775 475.566C291.644 473.475 291 471.069 291 468.509V479.433C291 487.478 297.358 493.999 305.2 493.999H347.8C355.642 493.999 362 487.478 362 479.433V468.509C362 471.069 361.356 473.475 360.225 475.566V479.433C360.225 486.472 354.662 492.179 347.8 492.179H305.2C298.338 492.179 292.775 486.472 292.775 479.433V475.566Z" fill="white"/>
<path fill-rule="evenodd" clip-rule="evenodd" d="M347.8 413.774H305.2C298.338 413.774 292.775 419.337 292.775 426.199V468.799C292.775 475.661 298.338 481.224 305.2 481.224H347.8C354.662 481.224 360.225 475.661 360.225 468.799V426.199C360.225 419.337 354.662 413.774 347.8 413.774ZM305.2 411.999C297.358 411.999 291 418.357 291 426.199V468.799C291 476.641 297.358 482.999 305.2 482.999H347.8C355.642 482.999 362 476.641 362 468.799V426.199C362 418.357 355.642 411.999 347.8 411.999H305.2Z" fill="white"/>
<path d="M339.943 446.468C340.779 447.152 340.779 448.427 339.943 449.111L319.932 465.482C318.813 466.398 317.13 465.604 317.13 464.161L317.13 431.419C317.13 429.976 318.813 429.182 319.932 430.097L339.943 446.468Z" fill="white"/>
<path d="M79.6383 595.399L74.0383 605.399H68.4383L62.8383 595.399V610.999H55.6383V582.999H63.2383L71.2383 597.799L79.2383 582.999H86.8383V610.999H79.6383V595.399ZM111.654 590.599C111.654 588.999 110.854 588.199 109.254 588.199H102.454C100.854 588.199 100.054 588.999 100.054 590.599V603.399C100.054 604.999 100.854 605.799 102.454 605.799H109.254C110.854 605.799 111.654 604.999 111.654 603.399V590.599ZM118.854 603.399C118.854 606.199 118.214 608.239 116.934 609.519C115.681 610.772 113.654 611.399 110.854 611.399H100.854C98.0539 611.399 96.0139 610.772 94.7339 609.519C93.4806 608.239 92.8539 606.199 92.8539 603.399V590.599C92.8539 587.799 93.4806 585.772 94.7339 584.519C96.0139 583.239 98.0539 582.599 100.854 582.599H110.854C113.654 582.599 115.681 583.239 116.934 584.519C118.214 585.772 118.854 587.799 118.854 590.599V603.399ZM135.891 602.599L142.691 582.999H150.491L139.891 610.999H131.891L121.291 582.999H129.091L135.891 602.599ZM167.69 610.999H153.29V605.399H156.89V588.599H153.29V582.999H167.69V588.599H164.09V605.399H167.69V610.999ZM197.287 595.399L191.687 605.399H186.087L180.487 595.399V610.999H173.287V582.999H180.887L188.887 597.799L196.887 582.999H204.487V610.999H197.287V595.399ZM233.502 610.999H211.302V582.999H233.502V588.599H218.502V593.999H230.302V599.599H218.502V605.399H233.502V610.999ZM263.093 610.999H255.493L245.893 594.199V610.999H238.693V582.999H246.293L255.893 599.799V582.999H263.093V610.999ZM283.512 610.999H276.312V588.599H267.912V582.999H291.912V588.599H283.512V610.999ZM298.904 610.999H291.104L301.704 582.999H309.704L320.304 610.999H312.504L310.704 605.999H300.704L298.904 610.999ZM302.504 600.799H308.904L305.704 591.399L302.504 600.799ZM345.121 610.599C339.174 611.132 334.241 611.399 330.321 611.399C327.708 611.399 325.788 610.786 324.561 609.559C323.334 608.332 322.721 606.412 322.721 603.799V590.999C322.721 588.199 323.348 586.172 324.601 584.919C325.881 583.639 327.921 582.999 330.721 582.999H345.121V588.599H332.321C330.721 588.599 329.921 589.399 329.921 590.999V603.799C329.921 604.412 330.094 604.906 330.441 605.279C330.814 605.626 331.281 605.799 331.841 605.799C332.401 605.799 333.014 605.799 333.681 605.799C334.348 605.772 335.041 605.746 335.761 605.719C336.481 605.692 337.201 605.666 337.921 605.639C338.668 605.612 339.614 605.559 340.761 605.479C341.934 605.399 343.388 605.306 345.121 605.199V610.599ZM335.521 610.199V611.799H335.921C337.228 611.799 338.214 612.119 338.881 612.759C339.574 613.399 339.921 614.279 339.921 615.399C339.921 616.519 339.574 617.399 338.881 618.039C338.214 618.679 337.228 618.999 335.921 618.999H331.121V616.399H335.121C336.054 616.399 336.521 616.066 336.521 615.399C336.521 614.732 336.054 614.399 335.121 614.399H332.121V610.199H335.521ZM355.326 610.999H347.526L358.126 582.999H366.126L376.726 610.999H368.926L367.126 605.999H357.126L355.326 610.999ZM358.926 600.799H365.326L362.126 591.399L358.926 600.799ZM364.526 577.359C365.379 577.359 366.046 576.826 366.526 575.759L369.126 577.359C368.886 578.212 368.566 578.959 368.166 579.599C367.232 581.172 366.019 581.959 364.526 581.959C363.966 581.959 363.472 581.852 363.046 581.639C362.646 581.426 362.259 581.199 361.886 580.959C361.539 580.719 361.192 580.492 360.846 580.279C360.499 580.066 360.126 579.959 359.726 579.959C358.872 579.959 358.206 580.492 357.726 581.559L355.126 579.959C355.552 578.306 356.339 577.012 357.486 576.079C358.072 575.599 358.726 575.359 359.446 575.359C360.192 575.359 360.766 575.466 361.166 575.679C361.592 575.892 361.979 576.119 362.326 576.359C362.699 576.599 363.059 576.826 363.406 577.039C363.752 577.252 364.126 577.359 364.526 577.359ZM397.943 590.599C397.943 588.999 397.143 588.199 395.543 588.199H388.743C387.143 588.199 386.343 588.999 386.343 590.599V603.399C386.343 604.999 387.143 605.799 388.743 605.799H395.543C397.143 605.799 397.943 604.999 397.943 603.399V590.599ZM405.143 603.399C405.143 606.199 404.503 608.239 403.223 609.519C401.97 610.772 399.943 611.399 397.143 611.399H387.143C384.343 611.399 382.303 610.772 381.023 609.519C379.77 608.239 379.143 606.199 379.143 603.399V590.599C379.143 587.799 379.77 585.772 381.023 584.519C382.303 583.239 384.343 582.599 387.143 582.599H397.143C399.943 582.599 401.97 583.239 403.223 584.519C404.503 585.772 405.143 587.799 405.143 590.599V603.399Z" fill="white"/>
<path fill-rule="evenodd" clip-rule="evenodd" d="M35.8 720.551C34.6531 718.517 34 716.176 34 713.685V724.313C34 732.14 40.4471 738.485 48.4 738.485H91.6C99.5529 738.485 106 732.14 106 724.313V713.685C106 716.176 105.347 718.517 104.2 720.551V724.313C104.2 731.161 98.5588 736.713 91.6 736.713H48.4C41.4412 736.713 35.8 731.161 35.8 724.313V720.551Z" fill="white"/>
<path fill-rule="evenodd" clip-rule="evenodd" d="M91.2573 658.77H48.743C41.8946 658.77 36.343 664.322 36.343 671.17V713.685C36.343 720.533 41.8946 726.085 48.743 726.085H91.2573C98.1056 726.085 103.657 720.533 103.657 713.685V671.17C103.657 664.322 98.1056 658.77 91.2573 658.77ZM48.743 656.999C40.9163 656.999 34.5715 663.344 34.5715 671.17V713.685C34.5715 721.511 40.9163 727.856 48.743 727.856H91.2573C99.0839 727.856 105.429 721.511 105.429 713.685V671.17C105.429 663.344 99.0839 656.999 91.2573 656.999H48.743Z" fill="white"/>
<path d="M72.8715 680.027L77.1915 695.97L80.9715 680.027H87.9915L81.1515 704.827H74.3115L69.9915 689.416L65.6715 704.827H58.8315L51.9915 680.027H59.0115L62.7915 695.97L67.1115 680.027H72.8715Z" fill="white"/>
<path fill-rule="evenodd" clip-rule="evenodd" d="M57.2721 762.677L68.7272 751.404C69.4302 750.712 70.5698 750.712 71.2728 751.404L82.7279 762.677C83.4309 763.369 83.4309 764.49 82.7279 765.182C82.025 765.874 80.8853 765.874 80.1823 765.182L71.8 756.933L71.8 780.999L68.2 780.999L68.2 756.933L59.8177 765.182C59.1147 765.874 57.975 765.874 57.2721 765.182C56.5691 764.49 56.5691 763.369 57.2721 762.677Z" fill="white"/>
<path fill-rule="evenodd" clip-rule="evenodd" d="M141.8 720.551C140.653 718.517 140 716.176 140 713.685V724.313C140 732.14 146.447 738.485 154.4 738.485H197.6C205.553 738.485 212 732.14 212 724.313V713.685C212 716.176 211.347 718.517 210.2 720.551V724.313C210.2 731.161 204.559 736.713 197.6 736.713H154.4C147.441 736.713 141.8 731.161 141.8 724.313V720.551Z" fill="white"/>
<path fill-rule="evenodd" clip-rule="evenodd" d="M197.257 658.77H154.743C147.895 658.77 142.343 664.322 142.343 671.17V713.685C142.343 720.533 147.895 726.085 154.743 726.085H197.257C204.106 726.085 209.657 720.533 209.657 713.685V671.17C209.657 664.322 204.106 658.77 197.257 658.77ZM154.743 656.999C146.916 656.999 140.572 663.344 140.572 671.17V713.685C140.572 721.511 146.916 727.856 154.743 727.856H197.257C205.084 727.856 211.429 721.511 211.429 713.685V671.17C211.429 663.344 205.084 656.999 197.257 656.999H154.743Z" fill="white"/>
<path d="M170.781 704.827H163.761L173.301 680.027H180.501L190.041 704.827H183.021L181.401 700.399H172.401L170.781 704.827ZM174.021 695.793H179.781L176.901 687.467L174.021 695.793Z" fill="white"/>
<path fill-rule="evenodd" clip-rule="evenodd" d="M172.683 778.467L161.227 767.194C160.525 766.502 160.525 765.381 161.227 764.689L172.683 753.416C173.386 752.724 174.525 752.724 175.228 753.416C175.931 754.107 175.931 755.229 175.228 755.921L166.846 764.17L191.3 764.17L191.3 767.713L166.846 767.713L175.228 775.962C175.931 776.654 175.931 777.776 175.228 778.467C174.525 779.159 173.386 779.159 172.683 778.467Z" fill="white"/>
<path fill-rule="evenodd" clip-rule="evenodd" d="M248.8 720.551C247.653 718.517 247 716.176 247 713.685V724.313C247 732.14 253.447 738.485 261.4 738.485H304.6C312.553 738.485 319 732.14 319 724.313V713.685C319 716.176 318.347 718.517 317.2 720.551V724.313C317.2 731.161 311.559 736.713 304.6 736.713H261.4C254.441 736.713 248.8 731.161 248.8 724.313V720.551Z" fill="white"/>
<path fill-rule="evenodd" clip-rule="evenodd" d="M304.257 658.77H261.743C254.895 658.77 249.343 664.322 249.343 671.17V713.685C249.343 720.533 254.895 726.085 261.743 726.085H304.257C311.106 726.085 316.657 720.533 316.657 713.685V671.17C316.657 664.322 311.106 658.77 304.257 658.77ZM261.743 656.999C253.916 656.999 247.572 663.344 247.572 671.17V713.685C247.572 721.511 253.916 727.856 261.743 727.856H304.257C312.084 727.856 318.429 721.511 318.429 713.685V671.17C318.429 663.344 312.084 656.999 304.257 656.999H261.743Z" fill="white"/>
<path d="M272.345 699.69C278.921 700.044 283.373 700.222 285.701 700.222C286.253 700.222 286.685 700.068 286.997 699.761C287.333 699.43 287.501 698.993 287.501 698.45V695.262H279.221C276.701 695.262 274.865 694.707 273.713 693.596C272.585 692.463 272.021 690.656 272.021 688.176V687.113C272.021 684.633 272.585 682.838 273.713 681.728C274.865 680.594 276.701 680.027 279.221 680.027H291.857V684.987H280.661C279.221 684.987 278.501 685.696 278.501 687.113V687.822C278.501 689.239 279.221 689.947 280.661 689.947H287.141C289.493 689.947 291.221 690.491 292.325 691.577C293.429 692.664 293.981 694.364 293.981 696.679V698.45C293.981 700.765 293.429 702.465 292.325 703.552C291.221 704.638 289.493 705.182 287.141 705.182C285.917 705.182 284.621 705.158 283.253 705.111L279.941 704.969C277.493 704.851 274.961 704.686 272.345 704.473V699.69Z" fill="white"/>
<path fill-rule="evenodd" clip-rule="evenodd" d="M295.728 769.207L284.273 780.48C283.57 781.172 282.43 781.172 281.727 780.48L270.272 769.207C269.569 768.515 269.569 767.394 270.272 766.702C270.975 766.01 272.115 766.01 272.818 766.702L281.2 774.951L281.2 750.885L284.8 750.885L284.8 774.951L293.183 766.702C293.886 766.01 295.025 766.01 295.728 766.702C296.431 767.394 296.431 768.515 295.728 769.207Z" fill="white"/>
<path fill-rule="evenodd" clip-rule="evenodd" d="M354.8 720.551C353.653 718.517 353 716.176 353 713.685V724.313C353 732.14 359.447 738.485 367.4 738.485H410.6C418.553 738.485 425 732.14 425 724.313V713.685C425 716.176 424.347 718.517 423.2 720.551V724.313C423.2 731.161 417.559 736.713 410.6 736.713H367.4C360.441 736.713 354.8 731.161 354.8 724.313V720.551Z" fill="white"/>
<path fill-rule="evenodd" clip-rule="evenodd" d="M410.257 658.77H367.743C360.895 658.77 355.343 664.322 355.343 671.17V713.685C355.343 720.533 360.895 726.085 367.743 726.085H410.257C417.106 726.085 422.657 720.533 422.657 713.685V671.17C422.657 664.322 417.106 658.77 410.257 658.77ZM367.743 656.999C359.916 656.999 353.572 663.344 353.572 671.17V713.685C353.572 721.511 359.916 727.856 367.743 727.856H410.257C418.084 727.856 424.429 721.511 424.429 713.685V671.17C424.429 663.344 418.084 656.999 410.257 656.999H367.743Z" fill="white"/>
<path d="M393.145 680.027C395.857 680.027 397.909 680.724 399.301 682.118C400.717 683.488 401.425 685.507 401.425 688.176V696.679C401.425 699.348 400.717 701.379 399.301 702.772C397.909 704.142 395.857 704.827 393.145 704.827H379.105V680.027H393.145ZM394.945 688.176C394.945 686.05 393.865 684.987 391.705 684.987H385.585V699.867H391.705C393.865 699.867 394.945 698.804 394.945 696.679V688.176Z" fill="white"/>
<path fill-rule="evenodd" clip-rule="evenodd" d="M392.318 753.416L403.773 764.69C404.476 765.381 404.476 766.503 403.773 767.195L392.318 778.468C391.615 779.16 390.475 779.16 389.773 778.468C389.07 777.776 389.07 776.655 389.773 775.963L398.155 767.714H373.7V764.171H398.155L389.773 755.921C389.07 755.23 389.07 754.108 389.773 753.416C390.475 752.725 391.615 752.725 392.318 753.416Z" fill="white"/>
</svg>
