<svg width="459" height="446" viewBox="0 0 459 446" fill="none" xmlns="http://www.w3.org/2000/svg">
<path d="M192.588 21.7984L186.988 31.7984H181.388L175.788 21.7984V37.3984H168.588V9.39844H176.188L184.188 24.1984L192.188 9.39844H199.788V37.3984H192.588V21.7984ZM228.803 37.3984H206.603V9.39844H228.803V14.9984H213.803V20.3984H225.603V25.9984H213.803V31.7984H228.803V37.3984ZM258.394 37.3984H250.794L241.194 20.5984V37.3984H233.994V9.39844H241.594L251.194 26.1984V9.39844H258.394V37.3984ZM283.213 9.39844H290.413V29.7984C290.413 32.5984 289.773 34.6384 288.493 35.9184C287.239 37.1718 285.213 37.7984 282.413 37.7984H273.213C270.413 37.7984 268.373 37.1718 267.093 35.9184C265.839 34.6384 265.213 32.5984 265.213 29.7984V9.39844H272.413V29.7984C272.413 31.3984 273.213 32.1984 274.813 32.1984H280.813C282.413 32.1984 283.213 31.3984 283.213 29.7984V9.39844Z" fill="white"/>
<path fill-rule="evenodd" clip-rule="evenodd" d="M175.1 126.483C173.762 124.089 173 121.332 173 118.399V130.913C173 140.129 180.522 147.599 189.8 147.599L270.2 147.598C279.478 147.598 287 140.128 287 130.913V118.398C287 121.331 286.238 124.088 284.9 126.483V130.913C284.9 138.976 278.319 145.513 270.2 145.513L189.8 145.513C181.681 145.513 175.1 138.977 175.1 130.913V126.483Z" fill="white"/>
<path fill-rule="evenodd" clip-rule="evenodd" d="M270.314 74.4842H189.686C181.622 74.4842 175.086 81.0208 175.086 89.0842V119.141C175.086 127.205 181.622 133.741 189.686 133.741H270.314C278.378 133.741 284.914 127.205 284.914 119.141V89.0842C284.914 81.0208 278.378 74.4842 270.314 74.4842ZM189.686 72.3984C180.47 72.3984 173 79.8689 173 89.0842V119.141C173 128.357 180.47 135.827 189.686 135.827H270.314C279.53 135.827 287 128.357 287 119.141V89.0842C287 79.8689 279.53 72.3984 270.314 72.3984H189.686Z" fill="white"/>
<path d="M219.138 111.398H205.818V94.5984H219.138V97.9584H210.138V101.198H217.218V104.558H210.138V108.038H219.138V111.398ZM221.749 107.918C226.133 108.158 229.101 108.278 230.653 108.278C231.021 108.278 231.309 108.174 231.517 107.966C231.741 107.742 231.853 107.446 231.853 107.078V104.918H226.333C224.653 104.918 223.429 104.542 222.661 103.79C221.909 103.022 221.533 101.798 221.533 100.118V99.3984C221.533 97.7184 221.909 96.5024 222.661 95.7504C223.429 94.9824 224.653 94.5984 226.333 94.5984H234.757V97.9584H227.293C226.333 97.9584 225.853 98.4384 225.853 99.3984V99.8784C225.853 100.838 226.333 101.318 227.293 101.318H231.613C233.181 101.318 234.333 101.686 235.069 102.422C235.805 103.158 236.173 104.31 236.173 105.878V107.078C236.173 108.646 235.805 109.798 235.069 110.534C234.333 111.27 233.181 111.638 231.613 111.638C230.797 111.638 229.933 111.622 229.021 111.59L226.812 111.494C225.181 111.414 223.493 111.302 221.749 111.158V107.918ZM251.291 115.238C250.171 115.398 249.099 115.478 248.075 115.478C247.051 115.478 246.211 115.15 245.555 114.494C244.899 113.838 244.571 112.966 244.571 111.878V111.638H243.851C242.171 111.638 240.947 111.262 240.179 110.51C239.427 109.742 239.051 108.518 239.051 106.838V99.1584C239.051 97.4784 239.427 96.2624 240.179 95.5104C240.947 94.7424 242.171 94.3584 243.851 94.3584H249.851C251.531 94.3584 252.747 94.7424 253.499 95.5104C254.267 96.2624 254.651 97.4784 254.651 99.1584V106.838C254.651 108.518 254.267 109.742 253.499 110.51C252.747 111.262 251.531 111.638 249.851 111.638H248.651V111.878C248.651 112.118 248.731 112.318 248.891 112.478C249.051 112.638 249.251 112.718 249.491 112.718H251.291V115.238ZM250.331 99.1584C250.331 98.1984 249.851 97.7184 248.891 97.7184H244.811C243.851 97.7184 243.371 98.1984 243.371 99.1584V106.838C243.371 107.798 243.851 108.278 244.811 108.278H248.891C249.851 108.278 250.331 107.798 250.331 106.838V99.1584Z" fill="white"/>
<path d="M79.6383 249L74.0383 259H68.4383L62.8383 249V264.6H55.6383V236.6H63.2383L71.2383 251.4L79.2383 236.6H86.8383V264.6H79.6383V249ZM111.654 244.2C111.654 242.6 110.854 241.8 109.254 241.8H102.454C100.854 241.8 100.054 242.6 100.054 244.2V257C100.054 258.6 100.854 259.4 102.454 259.4H109.254C110.854 259.4 111.654 258.6 111.654 257V244.2ZM118.854 257C118.854 259.8 118.214 261.84 116.934 263.12C115.681 264.373 113.654 265 110.854 265H100.854C98.0539 265 96.0139 264.373 94.7339 263.12C93.4806 261.84 92.8539 259.8 92.8539 257V244.2C92.8539 241.4 93.4806 239.373 94.7339 238.12C96.0139 236.84 98.0539 236.2 100.854 236.2H110.854C113.654 236.2 115.681 236.84 116.934 238.12C118.214 239.373 118.854 241.4 118.854 244.2V257ZM135.891 256.2L142.691 236.6H150.491L139.891 264.6H131.891L121.291 236.6H129.091L135.891 256.2ZM167.69 264.6H153.29V259H156.89V242.2H153.29V236.6H167.69V242.2H164.09V259H167.69V264.6ZM197.287 249L191.687 259H186.087L180.487 249V264.6H173.287V236.6H180.887L188.887 251.4L196.887 236.6H204.487V264.6H197.287V249ZM233.502 264.6H211.302V236.6H233.502V242.2H218.502V247.6H230.302V253.2H218.502V259H233.502V264.6ZM263.093 264.6H255.493L245.893 247.8V264.6H238.693V236.6H246.293L255.893 253.4V236.6H263.093V264.6ZM283.512 264.6H276.312V242.2H267.912V236.6H291.912V242.2H283.512V264.6ZM298.904 264.6H291.104L301.704 236.6H309.704L320.304 264.6H312.504L310.704 259.6H300.704L298.904 264.6ZM302.504 254.4H308.904L305.704 245L302.504 254.4ZM345.121 264.2C339.174 264.733 334.241 265 330.321 265C327.708 265 325.788 264.386 324.561 263.16C323.334 261.933 322.721 260.013 322.721 257.4V244.6C322.721 241.8 323.348 239.773 324.601 238.52C325.881 237.24 327.921 236.6 330.721 236.6H345.121V242.2H332.321C330.721 242.2 329.921 243 329.921 244.6V257.4C329.921 258.013 330.094 258.506 330.441 258.88C330.814 259.226 331.281 259.4 331.841 259.4C332.401 259.4 333.014 259.4 333.681 259.4C334.348 259.373 335.041 259.346 335.761 259.32C336.481 259.293 337.201 259.266 337.921 259.24C338.668 259.213 339.614 259.16 340.761 259.08C341.934 259 343.388 258.906 345.121 258.8V264.2ZM335.521 263.8V265.4H335.921C337.228 265.4 338.214 265.72 338.881 266.36C339.574 267 339.921 267.88 339.921 269C339.921 270.12 339.574 271 338.881 271.64C338.214 272.28 337.228 272.6 335.921 272.6H331.121V270H335.121C336.054 270 336.521 269.666 336.521 269C336.521 268.333 336.054 268 335.121 268H332.121V263.8H335.521ZM355.326 264.6H347.526L358.126 236.6H366.126L376.726 264.6H368.926L367.126 259.6H357.126L355.326 264.6ZM358.926 254.4H365.326L362.126 245L358.926 254.4ZM364.526 230.96C365.379 230.96 366.046 230.426 366.526 229.36L369.126 230.96C368.886 231.813 368.566 232.56 368.166 233.2C367.232 234.773 366.019 235.56 364.526 235.56C363.966 235.56 363.472 235.453 363.046 235.24C362.646 235.026 362.259 234.8 361.886 234.56C361.539 234.32 361.192 234.093 360.846 233.88C360.499 233.666 360.126 233.56 359.726 233.56C358.872 233.56 358.206 234.093 357.726 235.16L355.126 233.56C355.552 231.906 356.339 230.613 357.486 229.68C358.072 229.2 358.726 228.96 359.446 228.96C360.192 228.96 360.766 229.066 361.166 229.28C361.592 229.493 361.979 229.72 362.326 229.96C362.699 230.2 363.059 230.426 363.406 230.64C363.752 230.853 364.126 230.96 364.526 230.96ZM397.943 244.2C397.943 242.6 397.143 241.8 395.543 241.8H388.743C387.143 241.8 386.343 242.6 386.343 244.2V257C386.343 258.6 387.143 259.4 388.743 259.4H395.543C397.143 259.4 397.943 258.6 397.943 257V244.2ZM405.143 257C405.143 259.8 404.503 261.84 403.223 263.12C401.97 264.373 399.943 265 397.143 265H387.143C384.343 265 382.303 264.373 381.023 263.12C379.77 261.84 379.143 259.8 379.143 257V244.2C379.143 241.4 379.77 239.373 381.023 238.12C382.303 236.84 384.343 236.2 387.143 236.2H397.143C399.943 236.2 401.97 236.84 403.223 238.12C404.503 239.373 405.143 241.4 405.143 244.2V257Z" fill="white"/>
<path fill-rule="evenodd" clip-rule="evenodd" d="M35.8 374.151C34.6531 372.117 34 369.776 34 367.285V377.914C34 385.74 40.4471 392.085 48.4 392.085H91.6C99.5529 392.085 106 385.74 106 377.914V367.285C106 369.776 105.347 372.117 104.2 374.151V377.914C104.2 384.762 98.5588 390.314 91.6 390.314H48.4C41.4412 390.314 35.8 384.762 35.8 377.914V374.151Z" fill="white"/>
<path fill-rule="evenodd" clip-rule="evenodd" d="M91.2573 312.371H48.743C41.8946 312.371 36.343 317.923 36.343 324.771V367.285C36.343 374.134 41.8946 379.685 48.743 379.685H91.2573C98.1056 379.685 103.657 374.134 103.657 367.285V324.771C103.657 317.923 98.1056 312.371 91.2573 312.371ZM48.743 310.6C40.9163 310.6 34.5715 316.944 34.5715 324.771V367.285C34.5715 375.112 40.9163 381.457 48.743 381.457H91.2573C99.0839 381.457 105.429 375.112 105.429 367.285V324.771C105.429 316.944 99.0839 310.6 91.2573 310.6H48.743Z" fill="white"/>
<path d="M72.8715 333.628L77.1915 349.571L80.9715 333.628H87.9915L81.1515 358.428H74.3115L69.9915 343.017L65.6715 358.428H58.8315L51.9915 333.628H59.0115L62.7915 349.571L67.1115 333.628H72.8715Z" fill="white"/>
<path fill-rule="evenodd" clip-rule="evenodd" d="M57.2721 416.277L68.7272 405.004C69.4302 404.312 70.5698 404.312 71.2728 405.004L82.7279 416.277C83.4309 416.969 83.4309 418.091 82.7279 418.783C82.025 419.474 80.8853 419.474 80.1823 418.783L71.8 410.533L71.8 434.6L68.2 434.6L68.2 410.533L59.8177 418.783C59.1147 419.474 57.975 419.474 57.2721 418.783C56.5691 418.091 56.5691 416.969 57.2721 416.277Z" fill="white"/>
<path fill-rule="evenodd" clip-rule="evenodd" d="M141.8 374.151C140.653 372.117 140 369.776 140 367.285V377.914C140 385.74 146.447 392.085 154.4 392.085H197.6C205.553 392.085 212 385.74 212 377.914V367.285C212 369.776 211.347 372.117 210.2 374.151V377.914C210.2 384.762 204.559 390.314 197.6 390.314H154.4C147.441 390.314 141.8 384.762 141.8 377.914V374.151Z" fill="white"/>
<path fill-rule="evenodd" clip-rule="evenodd" d="M197.257 312.371H154.743C147.895 312.371 142.343 317.923 142.343 324.771V367.285C142.343 374.134 147.895 379.685 154.743 379.685H197.257C204.106 379.685 209.657 374.134 209.657 367.285V324.771C209.657 317.923 204.106 312.371 197.257 312.371ZM154.743 310.6C146.916 310.6 140.572 316.944 140.572 324.771V367.285C140.572 375.112 146.916 381.457 154.743 381.457H197.257C205.084 381.457 211.429 375.112 211.429 367.285V324.771C211.429 316.944 205.084 310.6 197.257 310.6H154.743Z" fill="white"/>
<path d="M170.781 358.428H163.761L173.301 333.628H180.501L190.041 358.428H183.021L181.401 353.999H172.401L170.781 358.428ZM174.021 349.394H179.781L176.901 341.068L174.021 349.394Z" fill="white"/>
<path fill-rule="evenodd" clip-rule="evenodd" d="M172.683 432.068L161.227 420.795C160.525 420.103 160.525 418.981 161.227 418.29L172.683 407.016C173.386 406.325 174.525 406.325 175.228 407.016C175.931 407.708 175.931 408.83 175.228 409.521L166.846 417.771L191.3 417.771L191.3 421.314L166.846 421.314L175.228 429.563C175.931 430.255 175.931 431.376 175.228 432.068C174.525 432.76 173.386 432.76 172.683 432.068Z" fill="white"/>
<path fill-rule="evenodd" clip-rule="evenodd" d="M248.8 374.151C247.653 372.117 247 369.776 247 367.285V377.914C247 385.74 253.447 392.085 261.4 392.085H304.6C312.553 392.085 319 385.74 319 377.914V367.285C319 369.776 318.347 372.117 317.2 374.151V377.914C317.2 384.762 311.559 390.314 304.6 390.314H261.4C254.441 390.314 248.8 384.762 248.8 377.914V374.151Z" fill="white"/>
<path fill-rule="evenodd" clip-rule="evenodd" d="M304.257 312.371H261.743C254.895 312.371 249.343 317.923 249.343 324.771V367.285C249.343 374.134 254.895 379.685 261.743 379.685H304.257C311.106 379.685 316.657 374.134 316.657 367.285V324.771C316.657 317.923 311.106 312.371 304.257 312.371ZM261.743 310.6C253.916 310.6 247.572 316.944 247.572 324.771V367.285C247.572 375.112 253.916 381.457 261.743 381.457H304.257C312.084 381.457 318.429 375.112 318.429 367.285V324.771C318.429 316.944 312.084 310.6 304.257 310.6H261.743Z" fill="white"/>
<path d="M272.345 353.291C278.921 353.645 283.373 353.822 285.701 353.822C286.253 353.822 286.685 353.669 286.997 353.362C287.333 353.031 287.501 352.594 287.501 352.051V348.862H279.221C276.701 348.862 274.865 348.307 273.713 347.197C272.585 346.063 272.021 344.257 272.021 341.777V340.714C272.021 338.234 272.585 336.439 273.713 335.329C274.865 334.195 276.701 333.628 279.221 333.628H291.857V338.588H280.661C279.221 338.588 278.501 339.297 278.501 340.714V341.422C278.501 342.839 279.221 343.548 280.661 343.548H287.141C289.493 343.548 291.221 344.091 292.325 345.178C293.429 346.264 293.981 347.965 293.981 350.279V352.051C293.981 354.365 293.429 356.066 292.325 357.153C291.221 358.239 289.493 358.782 287.141 358.782C285.917 358.782 284.621 358.759 283.253 358.711L279.941 358.57C277.493 358.452 274.961 358.286 272.345 358.074V353.291Z" fill="white"/>
<path fill-rule="evenodd" clip-rule="evenodd" d="M295.728 422.807L284.273 434.081C283.57 434.773 282.43 434.773 281.727 434.081L270.272 422.807C269.569 422.116 269.569 420.994 270.272 420.302C270.975 419.611 272.115 419.611 272.818 420.302L281.2 428.552L281.2 404.485L284.8 404.485L284.8 428.552L293.183 420.302C293.886 419.611 295.025 419.611 295.728 420.302C296.431 420.994 296.431 422.116 295.728 422.807Z" fill="white"/>
<path fill-rule="evenodd" clip-rule="evenodd" d="M354.8 374.151C353.653 372.117 353 369.776 353 367.285V377.914C353 385.74 359.447 392.085 367.4 392.085H410.6C418.553 392.085 425 385.74 425 377.914V367.285C425 369.776 424.347 372.117 423.2 374.151V377.914C423.2 384.762 417.559 390.314 410.6 390.314H367.4C360.441 390.314 354.8 384.762 354.8 377.914V374.151Z" fill="white"/>
<path fill-rule="evenodd" clip-rule="evenodd" d="M410.257 312.371H367.743C360.895 312.371 355.343 317.923 355.343 324.771V367.285C355.343 374.134 360.895 379.685 367.743 379.685H410.257C417.106 379.685 422.657 374.134 422.657 367.285V324.771C422.657 317.923 417.106 312.371 410.257 312.371ZM367.743 310.6C359.916 310.6 353.572 316.944 353.572 324.771V367.285C353.572 375.112 359.916 381.457 367.743 381.457H410.257C418.084 381.457 424.429 375.112 424.429 367.285V324.771C424.429 316.944 418.084 310.6 410.257 310.6H367.743Z" fill="white"/>
<path d="M393.145 333.628C395.857 333.628 397.909 334.325 399.301 335.718C400.717 337.088 401.425 339.108 401.425 341.777V350.279C401.425 352.948 400.717 354.98 399.301 356.373C397.909 357.743 395.857 358.428 393.145 358.428H379.105V333.628H393.145ZM394.945 341.777C394.945 339.651 393.865 338.588 391.705 338.588H385.585V353.468H391.705C393.865 353.468 394.945 352.405 394.945 350.279V341.777Z" fill="white"/>
<path fill-rule="evenodd" clip-rule="evenodd" d="M392.318 407.017L403.773 418.29C404.476 418.982 404.476 420.104 403.773 420.795L392.318 432.069C391.615 432.76 390.475 432.76 389.773 432.069C389.07 431.377 389.07 430.255 389.773 429.563L398.155 421.314H373.7V417.771H398.155L389.773 409.522C389.07 408.83 389.07 407.709 389.773 407.017C390.475 406.325 391.615 406.325 392.318 407.017Z" fill="white"/>
</svg>
