<svg width="214" height="69" viewBox="0 0 214 69" fill="none" xmlns="http://www.w3.org/2000/svg">
<rect x="2" y="2" width="210" height="65" rx="18" fill="white"/>
<rect x="2" y="2" width="210" height="65" rx="18" stroke="white" stroke-width="4"/>
<path d="M40.0001 25.5C42.1232 25.5 44.1779 26.2506 45.8011 27.619C47.4242 28.9875 48.5114 30.8857 48.8704 32.9782C49.2294 35.0707 48.8371 37.2227 47.7628 39.0539C46.6886 40.8851 45.0016 42.2776 42.9999 42.9853C40.9983 43.693 38.8109 43.6702 36.8244 42.9211C34.8379 42.172 33.1802 40.7448 32.1442 38.8916C31.1083 37.0385 30.7608 34.8788 31.1631 32.7942C31.5655 30.7096 32.6919 28.8344 34.3432 27.5" stroke="black" stroke-width="2.8" stroke-linecap="round" stroke-linejoin="round"/>
<path d="M31 26.5H35V30.5" stroke="black" stroke-width="2.8" stroke-linecap="round" stroke-linejoin="round"/>
<path d="M69.4642 25.2H79.5442C81.2242 25.2 82.4402 25.584 83.1922 26.352C83.9602 27.104 84.3442 28.32 84.3442 30V32.16C84.3442 33.488 84.1202 34.52 83.6722 35.256C83.2402 35.992 82.5442 36.48 81.5842 36.72L84.5842 42H79.9042L77.1442 36.96H73.7842V42H69.4642V25.2ZM80.0242 30C80.0242 29.04 79.5442 28.56 78.5842 28.56H73.7842V33.6H78.5842C79.5442 33.6 80.0242 33.12 80.0242 32.16V30ZM92.6177 32.04C91.9777 32.04 91.6577 32.36 91.6577 33V34.32H95.7377V33C95.7377 32.36 95.4177 32.04 94.7777 32.04H92.6177ZM99.4577 41.76C96.3697 42.08 93.5697 42.24 91.0577 42.24C89.9697 42.24 89.0977 41.912 88.4417 41.256C87.7857 40.6 87.4577 39.728 87.4577 38.64V32.88C87.4577 31.68 87.7937 30.744 88.4657 30.072C89.1537 29.384 90.0977 29.04 91.2977 29.04H96.0977C97.2977 29.04 98.2337 29.384 98.9057 30.072C99.5937 30.744 99.9377 31.68 99.9377 32.88V37.32H91.6577V38.28C91.6577 38.52 91.7377 38.72 91.8977 38.88C92.0577 39.04 92.2577 39.12 92.4977 39.12C94.0817 39.12 96.4017 39 99.4577 38.76V41.76ZM108.568 29.76V42H104.368V33H102.568V29.76H108.568ZM104.368 24.96H108.568V28.32H104.368V24.96ZM119.256 32.52C118.408 32.52 117.448 32.68 116.376 33V42H112.176V29.28H115.896L116.136 30.48C116.888 29.984 117.656 29.624 118.44 29.4C119.24 29.16 119.912 29.04 120.456 29.04H121.536C122.624 29.04 123.496 29.368 124.152 30.024C124.808 30.68 125.136 31.552 125.136 32.64V42H120.936V33.36C120.936 33.12 120.856 32.92 120.696 32.76C120.536 32.6 120.336 32.52 120.096 32.52H119.256ZM133.773 29.76V42H129.573V33H127.773V29.76H133.773ZM129.573 24.96H133.773V28.32H129.573V24.96ZM148.66 41.76C145.668 42.08 143.028 42.24 140.74 42.24C139.652 42.24 138.78 41.912 138.124 41.256C137.468 40.6 137.14 39.728 137.14 38.64V33.12C137.14 31.92 137.476 30.984 138.148 30.312C138.836 29.624 139.78 29.28 140.98 29.28H148.66V32.52H142.3C141.66 32.52 141.34 32.84 141.34 33.48V38.16C141.34 38.4 141.42 38.6 141.58 38.76C141.74 38.92 141.94 39 142.18 39C143.62 39 145.78 38.88 148.66 38.64V41.76ZM157.056 29.76V42H152.856V33H151.056V29.76H157.056ZM152.856 24.96H157.056V28.32H152.856V24.96ZM165.703 38.88C166.551 38.88 167.511 38.72 168.583 38.4V36.96H165.103C164.863 36.96 164.663 37.04 164.503 37.2C164.343 37.36 164.263 37.56 164.263 37.8V38.04C164.263 38.28 164.343 38.48 164.503 38.64C164.663 38.8 164.863 38.88 165.103 38.88H165.703ZM161.263 29.52C164.191 29.2 166.831 29.04 169.183 29.04C170.271 29.04 171.143 29.368 171.799 30.024C172.455 30.68 172.783 31.552 172.783 32.64V42H169.063L168.823 40.8C168.071 41.296 167.295 41.664 166.495 41.904C165.711 42.128 165.047 42.24 164.503 42.24H163.663C162.575 42.24 161.703 41.912 161.047 41.256C160.391 40.6 160.063 39.728 160.063 38.64V37.56C160.063 36.472 160.391 35.6 161.047 34.944C161.703 34.288 162.575 33.96 163.663 33.96H168.583V33C168.583 32.76 168.503 32.56 168.343 32.4C168.183 32.24 167.983 32.16 167.743 32.16C166.703 32.16 165.551 32.208 164.287 32.304C163.039 32.4 162.031 32.472 161.263 32.52V29.52ZM183.457 32.76C182.449 32.76 181.409 33 180.337 33.48V42H176.137V29.28H179.857L180.097 30.84C181.473 29.64 182.913 29.04 184.417 29.04H185.497V32.76H183.457Z" fill="black"/>
</svg>
