<svg width="224" height="69" viewBox="0 0 224 69" fill="none" xmlns="http://www.w3.org/2000/svg">
<rect x="2" y="2" width="220" height="65" rx="18" fill="white"/>
<rect x="2" y="2" width="220" height="65" rx="18" stroke="white" stroke-width="4"/>
<path d="M31.2 42.5C30.595 42.5 30.0773 42.2764 29.6468 41.8291C29.2163 41.3819 29.0007 40.8436 29 40.2143V28.7857C29 28.1571 29.2156 27.6192 29.6468 27.172C30.078 26.7248 30.5957 26.5008 31.2 26.5H48.8C49.405 26.5 49.9231 26.724 50.3543 27.172C50.7855 27.62 51.0007 28.1579 51 28.7857V40.2143C51 40.8429 50.7848 41.3811 50.3543 41.8291C49.9238 42.2771 49.4057 42.5008 48.8 42.5H31.2ZM31.2 40.2143H48.8V28.7857H31.2V40.2143ZM35.6 39.0714H44.4V36.7857H35.6V39.0714ZM32.3 35.6429H34.5V33.3571H32.3V35.6429ZM35.6 35.6429H37.8V33.3571H35.6V35.6429ZM38.9 35.6429H41.1V33.3571H38.9V35.6429ZM42.2 35.6429H44.4V33.3571H42.2V35.6429ZM45.5 35.6429H47.7V33.3571H45.5V35.6429ZM32.3 32.2143H34.5V29.9286H32.3V32.2143ZM35.6 32.2143H37.8V29.9286H35.6V32.2143ZM38.9 32.2143H41.1V29.9286H38.9V32.2143ZM42.2 32.2143H44.4V29.9286H42.2V32.2143ZM45.5 32.2143H47.7V29.9286H45.5V32.2143Z" fill="black"/>
<path d="M82.6781 41.76C79.1101 42.08 76.1501 42.24 73.7981 42.24C72.2301 42.24 71.0781 41.872 70.3421 41.136C69.6061 40.4 69.2381 39.248 69.2381 37.68V30C69.2381 28.32 69.6141 27.104 70.3661 26.352C71.1341 25.584 72.3581 25.2 74.0381 25.2H82.6781V28.56H74.9981C74.0381 28.56 73.5581 29.04 73.5581 30V37.68C73.5581 38.048 73.6621 38.344 73.8701 38.568C74.0941 38.776 74.3741 38.88 74.7101 38.88C75.0461 38.88 75.4141 38.88 75.8141 38.88C76.2141 38.864 76.6301 38.848 77.0621 38.832C77.4941 38.816 77.9261 38.8 78.3581 38.784C78.8061 38.768 79.3741 38.736 80.0621 38.688C80.7661 38.64 81.6381 38.584 82.6781 38.52V41.76ZM98.5209 38.4C98.5209 39.6 98.1769 40.544 97.4889 41.232C96.8169 41.904 95.8809 42.24 94.6809 42.24H89.1609C87.9609 42.24 87.0169 41.904 86.3289 41.232C85.6569 40.544 85.3209 39.6 85.3209 38.4V32.88C85.3209 31.68 85.6569 30.744 86.3289 30.072C87.0169 29.384 87.9609 29.04 89.1609 29.04H94.6809C95.8809 29.04 96.8169 29.384 97.4889 30.072C98.1769 30.744 98.5209 31.68 98.5209 32.88V38.4ZM94.3209 33.24C94.3209 32.6 94.0009 32.28 93.3609 32.28H90.4809C89.8409 32.28 89.5209 32.6 89.5209 33.24V38.04C89.5209 38.68 89.8409 39 90.4809 39H93.3609C94.0009 39 94.3209 38.68 94.3209 38.04V33.24ZM108.958 32.52C108.11 32.52 107.15 32.68 106.078 33V42H101.878V29.28H105.598L105.838 30.48C106.59 29.984 107.358 29.624 108.142 29.4C108.942 29.16 109.614 29.04 110.158 29.04H111.238C112.326 29.04 113.198 29.368 113.854 30.024C114.51 30.68 114.838 31.552 114.838 32.64V42H110.638V33.36C110.638 33.12 110.558 32.92 110.398 32.76C110.238 32.6 110.038 32.52 109.798 32.52H108.958ZM127.075 42C125.523 42.16 124.003 42.24 122.515 42.24C121.427 42.24 120.555 41.912 119.899 41.256C119.243 40.6 118.915 39.728 118.915 38.64V32.52H117.475V29.28H118.915L119.395 26.4H123.115V29.28H126.115V32.52H123.115V38.04C123.115 38.28 123.195 38.48 123.355 38.64C123.515 38.8 123.715 38.88 123.955 38.88H127.075V42ZM137.286 32.76C136.278 32.76 135.238 33 134.166 33.48V42H129.966V29.28H133.686L133.926 30.84C135.302 29.64 136.742 29.04 138.246 29.04H139.326V32.76H137.286ZM154.696 38.4C154.696 39.6 154.352 40.544 153.664 41.232C152.992 41.904 152.056 42.24 150.856 42.24H145.336C144.136 42.24 143.192 41.904 142.504 41.232C141.832 40.544 141.496 39.6 141.496 38.4V32.88C141.496 31.68 141.832 30.744 142.504 30.072C143.192 29.384 144.136 29.04 145.336 29.04H150.856C152.056 29.04 152.992 29.384 153.664 30.072C154.352 30.744 154.696 31.68 154.696 32.88V38.4ZM150.496 33.24C150.496 32.6 150.176 32.28 149.536 32.28H146.656C146.016 32.28 145.696 32.6 145.696 33.24V38.04C145.696 38.68 146.016 39 146.656 39H149.536C150.176 39 150.496 38.68 150.496 38.04V33.24ZM164.533 42C163.461 42.16 162.437 42.24 161.461 42.24C160.501 42.24 159.693 41.912 159.037 41.256C158.381 40.6 158.053 39.728 158.053 38.64V25.2H162.253V38.04C162.253 38.28 162.333 38.48 162.493 38.64C162.653 38.8 162.853 38.88 163.093 38.88H164.533V42ZM172.329 32.04C171.689 32.04 171.369 32.36 171.369 33V34.32H175.449V33C175.449 32.36 175.129 32.04 174.489 32.04H172.329ZM179.169 41.76C176.081 42.08 173.281 42.24 170.769 42.24C169.681 42.24 168.809 41.912 168.153 41.256C167.497 40.6 167.169 39.728 167.169 38.64V32.88C167.169 31.68 167.505 30.744 168.177 30.072C168.865 29.384 169.809 29.04 171.009 29.04H175.809C177.009 29.04 177.945 29.384 178.617 30.072C179.305 30.744 179.649 31.68 179.649 32.88V37.32H171.369V38.28C171.369 38.52 171.449 38.72 171.609 38.88C171.769 39.04 171.969 39.12 172.209 39.12C173.793 39.12 176.113 39 179.169 38.76V41.76ZM182.52 38.64C185.768 38.88 188.328 39 190.2 39C190.44 39 190.64 38.92 190.8 38.76C190.96 38.6 191.04 38.4 191.04 38.16V37.32H185.88C184.792 37.32 183.92 36.992 183.264 36.336C182.608 35.68 182.28 34.808 182.28 33.72V32.88C182.28 31.792 182.608 30.92 183.264 30.264C183.92 29.608 184.792 29.28 185.88 29.28H194.04V32.4H187.32C187.08 32.4 186.88 32.48 186.72 32.64C186.56 32.8 186.48 33 186.48 33.24C186.48 33.48 186.56 33.68 186.72 33.84C186.88 34 187.08 34.08 187.32 34.08H191.64C192.728 34.08 193.6 34.408 194.256 35.064C194.912 35.72 195.24 36.592 195.24 37.68V38.64C195.24 39.728 194.912 40.6 194.256 41.256C193.6 41.912 192.728 42.24 191.64 42.24C188.808 42.24 185.768 42.08 182.52 41.76V38.64Z" fill="black"/>
</svg>
