<svg width="149" height="69" viewBox="0 0 149 69" fill="none" xmlns="http://www.w3.org/2000/svg">
<rect x="2" y="2" width="145" height="65" rx="18" fill="white"/>
<rect x="2" y="2" width="145" height="65" rx="18" stroke="white" stroke-width="4"/>
<g clip-path="url(#clip0_98_1784)">
<path d="M49 31.5H46.45C46.15 31.5 45.85 31.35 45.55 31.2L43.6 29.25C43.3 28.8 42.7 28.5 41.95 28.5H41.5C43.15 28.5 44.5 27.15 44.5 25.5C44.5 23.85 43.15 22.5 41.5 22.5C39.85 22.5 38.5 23.85 38.5 25.5C38.5 26.55 39.1 27.6 40 28.05L39.7 28.5H36.7C35.05 28.5 33.25 29.25 32.2 30.75L31.3 31.95C30.7 32.55 31 33.45 31.6 33.9C32.2 34.2 32.95 34.05 33.4 33.45L34.15 32.4C34.6 31.8 35.2 31.5 35.95 31.5H37.15L36.1 33.9C35.65 34.8 35.5 35.7 35.5 36.75V39.75C35.5 40.2 35.2 40.5 34.75 40.5H31C30.1 40.5 29.5 41.1 29.5 42C29.5 42.9 30.1 43.5 31 43.5H36.25C37.45 43.5 38.5 42.45 38.5 41.25V37.5L44.2 44.25C45.1 45.6 46.75 46.5 48.4 46.5H49.75L41.65 36.45C41.2 35.85 41.35 35.25 41.65 34.5L42.55 32.25L43.6 33.45C44.2 34.05 45.1 34.5 46 34.5H49C49.9 34.5 50.5 33.9 50.5 33C50.5 32.1 49.9 31.5 49 31.5Z" fill="black"/>
</g>
<path d="M69.0969 38.52C73.4809 38.76 76.4489 38.88 78.0009 38.88C78.3689 38.88 78.6569 38.776 78.8649 38.568C79.0889 38.344 79.2009 38.048 79.2009 37.68V35.52H73.6809C72.0009 35.52 70.7769 35.144 70.0089 34.392C69.2569 33.624 68.8809 32.4 68.8809 30.72V30C68.8809 28.32 69.2569 27.104 70.0089 26.352C70.7769 25.584 72.0009 25.2 73.6809 25.2H82.1049V28.56H74.6409C73.6809 28.56 73.2009 29.04 73.2009 30V30.48C73.2009 31.44 73.6809 31.92 74.6409 31.92H78.9609C80.5289 31.92 81.6809 32.288 82.4169 33.024C83.1529 33.76 83.5209 34.912 83.5209 36.48V37.68C83.5209 39.248 83.1529 40.4 82.4169 41.136C81.6809 41.872 80.5289 42.24 78.9609 42.24C78.1449 42.24 77.2809 42.224 76.3689 42.192L74.1609 42.096C72.5289 42.016 70.8409 41.904 69.0969 41.76V38.52ZM91.6791 38.88C92.5271 38.88 93.4871 38.72 94.5591 38.4V36.96H91.0791C90.8391 36.96 90.6391 37.04 90.4791 37.2C90.3191 37.36 90.2391 37.56 90.2391 37.8V38.04C90.2391 38.28 90.3191 38.48 90.4791 38.64C90.6391 38.8 90.8391 38.88 91.0791 38.88H91.6791ZM87.2391 29.52C90.1671 29.2 92.8071 29.04 95.1591 29.04C96.2471 29.04 97.1191 29.368 97.7751 30.024C98.4311 30.68 98.7591 31.552 98.7591 32.64V42H95.0391L94.7991 40.8C94.0471 41.296 93.2711 41.664 92.4711 41.904C91.6871 42.128 91.0231 42.24 90.4791 42.24H89.6391C88.5511 42.24 87.6791 41.912 87.0231 41.256C86.3671 40.6 86.0391 39.728 86.0391 38.64V37.56C86.0391 36.472 86.3671 35.6 87.0231 34.944C87.6791 34.288 88.5511 33.96 89.6391 33.96H94.5591V33C94.5591 32.76 94.4791 32.56 94.3191 32.4C94.1591 32.24 93.9591 32.16 93.7191 32.16C92.6791 32.16 91.5271 32.208 90.2631 32.304C89.0151 32.4 88.0071 32.472 87.2391 32.52V29.52ZM107.393 29.76V42H103.193V33H101.393V29.76H107.393ZM103.193 24.96H107.393V28.32H103.193V24.96ZM118.32 32.76C117.312 32.76 116.272 33 115.2 33.48V42H111V29.28H114.72L114.96 30.84C116.336 29.64 117.776 29.04 119.28 29.04H120.36V32.76H118.32Z" fill="black"/>
<defs>
<clipPath id="clip0_98_1784">
<rect width="24" height="24" fill="white" transform="translate(28 22.5)"/>
</clipPath>
</defs>
</svg>
