<svg width="202" height="69" viewBox="0 0 202 69" fill="none" xmlns="http://www.w3.org/2000/svg">
<rect x="2" y="2" width="198" height="65" rx="18" stroke="white" stroke-width="4"/>
<path d="M38.1831 32.2303C38.089 31.9474 38.1111 31.6386 38.2446 31.3719C38.378 31.1053 38.6118 30.9025 38.8947 30.8081L40.0197 30.4331C40.1887 30.3769 40.3687 30.3615 40.5449 30.3884C40.721 30.4153 40.8882 30.4837 41.0328 30.5879C41.1773 30.692 41.295 30.8291 41.3763 30.9876C41.4575 31.1462 41.4999 31.3218 41.5 31.5V35.25C41.5 35.5484 41.3815 35.8345 41.1705 36.0455C40.9595 36.2565 40.6734 36.375 40.375 36.375C40.0766 36.375 39.7905 36.2565 39.5795 36.0455C39.3685 35.8345 39.25 35.5484 39.25 35.25V33C39.0139 32.9999 38.7838 32.9255 38.5923 32.7874C38.4009 32.6492 38.2577 32.4543 38.1831 32.2303ZM51.625 42C51.625 42.2984 51.5065 42.5845 51.2955 42.7955C51.0845 43.0065 50.7984 43.125 50.5 43.125H29.5C29.2016 43.125 28.9155 43.0065 28.7045 42.7955C28.4935 42.5845 28.375 42.2984 28.375 42C28.375 41.7016 28.4935 41.4155 28.7045 41.2045C28.9155 40.9935 29.2016 40.875 29.5 40.875H29.875V32.25C29.875 31.7527 30.0725 31.2758 30.4242 30.9242C30.7758 30.5725 31.2527 30.375 31.75 30.375H35.125V27.75C35.125 27.2527 35.3225 26.7758 35.6742 26.4242C36.0258 26.0725 36.5027 25.875 37 25.875H43C43.4973 25.875 43.9742 26.0725 44.3258 26.4242C44.6775 26.7758 44.875 27.2527 44.875 27.75V34.125H48.25C48.7473 34.125 49.2242 34.3225 49.5758 34.6742C49.9275 35.0258 50.125 35.5027 50.125 36V40.875H50.5C50.7984 40.875 51.0845 40.9935 51.2955 41.2045C51.5065 41.4155 51.625 41.7016 51.625 42ZM44.875 36.375V40.875H47.875V36.375H44.875ZM37.375 40.875H42.625V28.125H37.375V40.875ZM32.125 40.875H35.125V32.625H32.125V40.875Z" fill="white"/>
<path d="M69.4689 25.2H79.5489C81.2289 25.2 82.4449 25.584 83.1969 26.352C83.9649 27.104 84.3489 28.32 84.3489 30V32.16C84.3489 33.488 84.1249 34.52 83.6769 35.256C83.2449 35.992 82.5489 36.48 81.5889 36.72L84.5889 42H79.9089L77.1489 36.96H73.7889V42H69.4689V25.2ZM80.0289 30C80.0289 29.04 79.5489 28.56 78.5889 28.56H73.7889V33.6H78.5889C79.5489 33.6 80.0289 33.12 80.0289 32.16V30ZM92.7423 38.88C93.5903 38.88 94.5503 38.72 95.6223 38.4V36.96H92.1423C91.9023 36.96 91.7023 37.04 91.5423 37.2C91.3823 37.36 91.3023 37.56 91.3023 37.8V38.04C91.3023 38.28 91.3823 38.48 91.5423 38.64C91.7023 38.8 91.9023 38.88 92.1423 38.88H92.7423ZM88.3023 29.52C91.2303 29.2 93.8703 29.04 96.2223 29.04C97.3103 29.04 98.1823 29.368 98.8383 30.024C99.4943 30.68 99.8223 31.552 99.8223 32.64V42H96.1023L95.8623 40.8C95.1103 41.296 94.3343 41.664 93.5343 41.904C92.7503 42.128 92.0863 42.24 91.5423 42.24H90.7023C89.6143 42.24 88.7423 41.912 88.0863 41.256C87.4303 40.6 87.1023 39.728 87.1023 38.64V37.56C87.1023 36.472 87.4303 35.6 88.0863 34.944C88.7423 34.288 89.6143 33.96 90.7023 33.96H95.6223V33C95.6223 32.76 95.5423 32.56 95.3823 32.4C95.2223 32.24 95.0223 32.16 94.7823 32.16C93.7423 32.16 92.5903 32.208 91.3263 32.304C90.0783 32.4 89.0703 32.472 88.3023 32.52V29.52ZM110.256 32.52C109.408 32.52 108.448 32.68 107.376 33V42H103.176V29.28H106.896L107.136 30.48C107.888 29.984 108.656 29.624 109.44 29.4C110.24 29.16 110.912 29.04 111.456 29.04H112.536C113.624 29.04 114.496 29.368 115.152 30.024C115.808 30.68 116.136 31.552 116.136 32.64V42H111.936V33.36C111.936 33.12 111.856 32.92 111.696 32.76C111.536 32.6 111.336 32.52 111.096 32.52H110.256ZM123.693 36.96V42H119.493V25.2H123.693V33.72H125.613L128.253 29.28H132.693L129.093 35.4L132.693 42H128.253L125.493 36.96H123.693ZM140.364 29.76V42H136.164V33H134.364V29.76H140.364ZM136.164 24.96H140.364V28.32H136.164V24.96ZM151.051 32.52C150.203 32.52 149.243 32.68 148.171 33V42H143.971V29.28H147.691L147.931 30.48C148.683 29.984 149.451 29.624 150.235 29.4C151.035 29.16 151.707 29.04 152.251 29.04H153.331C154.419 29.04 155.291 29.368 155.947 30.024C156.603 30.68 156.931 31.552 156.931 32.64V42H152.731V33.36C152.731 33.12 152.651 32.92 152.491 32.76C152.331 32.6 152.131 32.52 151.891 32.52H151.051ZM168.568 41.04C167.016 41.36 165.656 41.52 164.488 41.52H163.648C162.56 41.52 161.688 41.192 161.032 40.536C160.376 39.88 160.048 39.008 160.048 37.92V33.12C160.048 31.92 160.384 30.984 161.056 30.312C161.744 29.624 162.688 29.28 163.888 29.28H172.768V42.72C172.768 43.808 172.44 44.68 171.784 45.336C171.128 45.992 170.256 46.32 169.168 46.32C166.656 46.32 163.856 46.16 160.768 45.84V42.72C163.824 42.96 166.144 43.08 167.728 43.08C167.968 43.08 168.168 43 168.328 42.84C168.488 42.68 168.568 42.48 168.568 42.24V41.04ZM165.688 38.28C166.696 38.28 167.656 38.2 168.568 38.04V32.52H165.208C164.568 32.52 164.248 32.84 164.248 33.48V37.44C164.248 37.68 164.328 37.88 164.488 38.04C164.648 38.2 164.848 38.28 165.088 38.28H165.688Z" fill="white"/>
</svg>
