<svg width="209" height="69" viewBox="0 0 209 69" fill="none" xmlns="http://www.w3.org/2000/svg">
<rect x="2" y="2" width="205" height="65" rx="18" fill="white"/>
<rect x="2" y="2" width="205" height="65" rx="18" stroke="white" stroke-width="4"/>
<path d="M35.0387 26.979C34.2135 26.9792 33.526 27.6353 33.526 28.469V40.53C33.526 40.8109 33.6066 41.085 33.7573 41.3216L33.7575 41.3219C34.2021 42.0189 35.1302 42.2253 35.8339 41.7972L45.7557 35.7663L45.7566 35.7657C45.9511 35.6469 46.1184 35.4847 46.242 35.2917L46.2418 35.2915C46.3479 35.1249 46.4195 34.9387 46.4523 34.7438C46.4851 34.549 46.4785 34.3496 46.4328 34.1573C46.3871 33.9651 46.3033 33.784 46.1863 33.6248C46.0698 33.4662 45.9228 33.3326 45.754 33.2317L35.8337 27.2008L35.833 27.2003C35.5935 27.0552 35.3187 26.9787 35.0387 26.979ZM35.0387 26.979C35.0388 26.979 35.0389 26.979 35.039 26.979V27.479L35.0383 26.979C35.0384 26.979 35.0386 26.979 35.0387 26.979ZM46.3064 36.5927L46.3063 36.5928L36.3853 42.6238L36.3851 42.6238C35.1886 43.3518 33.618 42.989 32.8807 41.8314L32.8799 41.83C32.6312 41.4424 32.4993 40.9913 32.5 40.5307V40.53V28.47C32.5 27.116 33.6251 26 35.04 26C35.5161 26 35.9821 26.1302 36.3852 26.3752C36.3853 26.3752 36.3853 26.3752 36.3853 26.3753L46.3062 32.4072L46.3063 32.4073C47.4963 33.1304 47.8529 34.6481 47.1194 35.7993C46.915 36.12 46.6367 36.392 46.3064 36.5927Z" fill="white" stroke="black"/>
<path d="M82.7531 41.76C79.1851 42.08 76.2251 42.24 73.8731 42.24C72.3051 42.24 71.1531 41.872 70.4171 41.136C69.6811 40.4 69.3131 39.248 69.3131 37.68V30C69.3131 28.32 69.6891 27.104 70.4411 26.352C71.2091 25.584 72.4331 25.2 74.1131 25.2H82.7531V28.56H75.0731C74.1131 28.56 73.6331 29.04 73.6331 30V37.68C73.6331 38.048 73.7371 38.344 73.9451 38.568C74.1691 38.776 74.4491 38.88 74.7851 38.88C75.1211 38.88 75.4891 38.88 75.8891 38.88C76.2891 38.864 76.7051 38.848 77.1371 38.832C77.5691 38.816 78.0011 38.8 78.4331 38.784C78.8811 38.768 79.4491 38.736 80.1371 38.688C80.8411 38.64 81.7131 38.584 82.7531 38.52V41.76ZM98.5959 38.4C98.5959 39.6 98.2519 40.544 97.5639 41.232C96.8919 41.904 95.9559 42.24 94.7559 42.24H89.2359C88.0359 42.24 87.0919 41.904 86.4039 41.232C85.7319 40.544 85.3959 39.6 85.3959 38.4V32.88C85.3959 31.68 85.7319 30.744 86.4039 30.072C87.0919 29.384 88.0359 29.04 89.2359 29.04H94.7559C95.9559 29.04 96.8919 29.384 97.5639 30.072C98.2519 30.744 98.5959 31.68 98.5959 32.88V38.4ZM94.3959 33.24C94.3959 32.6 94.0759 32.28 93.4359 32.28H90.5559C89.9159 32.28 89.5959 32.6 89.5959 33.24V38.04C89.5959 38.68 89.9159 39 90.5559 39H93.4359C94.0759 39 94.3959 38.68 94.3959 38.04V33.24ZM110.473 29.04C111.769 29.04 112.769 29.52 113.473 30.48C114.209 29.984 115.001 29.624 115.849 29.4C116.713 29.16 117.481 29.04 118.153 29.04H118.393C119.481 29.04 120.353 29.368 121.009 30.024C121.665 30.68 121.993 31.552 121.993 32.64V42H117.793V33.36C117.793 33.12 117.713 32.92 117.553 32.76C117.393 32.6 117.193 32.52 116.953 32.52H116.833C116.113 32.52 115.193 32.68 114.073 33V42H109.873V33.36C109.873 33.12 109.793 32.92 109.633 32.76C109.473 32.6 109.273 32.52 109.033 32.52H108.913C108.193 32.52 107.273 32.68 106.153 33V42H101.953V29.28H105.673L105.913 30.48C106.665 29.984 107.433 29.624 108.217 29.4C109.017 29.16 109.689 29.04 110.233 29.04H110.473ZM130.268 32.04C129.628 32.04 129.308 32.36 129.308 33V34.32H133.388V33C133.388 32.36 133.068 32.04 132.428 32.04H130.268ZM137.108 41.76C134.02 42.08 131.22 42.24 128.708 42.24C127.62 42.24 126.748 41.912 126.092 41.256C125.436 40.6 125.108 39.728 125.108 38.64V32.88C125.108 31.68 125.444 30.744 126.116 30.072C126.804 29.384 127.748 29.04 128.948 29.04H133.748C134.948 29.04 135.884 29.384 136.556 30.072C137.244 30.744 137.588 31.68 137.588 32.88V37.32H129.308V38.28C129.308 38.52 129.388 38.72 129.548 38.88C129.708 39.04 129.908 39.12 130.148 39.12C131.732 39.12 134.052 39 137.108 38.76V41.76ZM152.219 41.76C149.227 42.08 146.587 42.24 144.299 42.24C143.211 42.24 142.339 41.912 141.683 41.256C141.027 40.6 140.699 39.728 140.699 38.64V33.12C140.699 31.92 141.035 30.984 141.707 30.312C142.395 29.624 143.339 29.28 144.539 29.28H152.219V32.52H145.859C145.219 32.52 144.899 32.84 144.899 33.48V38.16C144.899 38.4 144.979 38.6 145.139 38.76C145.299 38.92 145.499 39 145.739 39C147.179 39 149.339 38.88 152.219 38.64V41.76ZM147.299 41.52V42.48H147.539C148.323 42.48 148.915 42.672 149.315 43.056C149.731 43.44 149.939 43.968 149.939 44.64C149.939 45.312 149.731 45.84 149.315 46.224C148.915 46.608 148.323 46.8 147.539 46.8H144.659V45.24H147.059C147.619 45.24 147.899 45.04 147.899 44.64C147.899 44.24 147.619 44.04 147.059 44.04H145.259V41.52H147.299ZM160.374 38.88C161.222 38.88 162.182 38.72 163.254 38.4V36.96H159.774C159.534 36.96 159.334 37.04 159.174 37.2C159.014 37.36 158.934 37.56 158.934 37.8V38.04C158.934 38.28 159.014 38.48 159.174 38.64C159.334 38.8 159.534 38.88 159.774 38.88H160.374ZM155.934 29.52C158.862 29.2 161.502 29.04 163.854 29.04C164.942 29.04 165.814 29.368 166.47 30.024C167.126 30.68 167.454 31.552 167.454 32.64V42H163.734L163.494 40.8C162.742 41.296 161.966 41.664 161.166 41.904C160.382 42.128 159.718 42.24 159.174 42.24H158.334C157.246 42.24 156.374 41.912 155.718 41.256C155.062 40.6 154.734 39.728 154.734 38.64V37.56C154.734 36.472 155.062 35.6 155.718 34.944C156.374 34.288 157.246 33.96 158.334 33.96H163.254V33C163.254 32.76 163.174 32.56 163.014 32.4C162.854 32.24 162.654 32.16 162.414 32.16C161.374 32.16 160.222 32.208 158.958 32.304C157.71 32.4 156.702 32.472 155.934 32.52V29.52ZM178.128 32.76C177.12 32.76 176.08 33 175.008 33.48V42H170.808V29.28H174.528L174.768 30.84C176.144 29.64 177.584 29.04 179.088 29.04H180.168V32.76H178.128Z" fill="black"/>
</svg>
