<svg width="167" height="69" viewBox="0 0 167 69" fill="none" xmlns="http://www.w3.org/2000/svg">
<rect x="2" y="2" width="163" height="65" rx="18" stroke="white" stroke-width="4"/>
<g clip-path="url(#clip0_1_36)">
<path d="M50.5464 35.8329C50.8867 35.4793 51.0779 35 51.0779 34.5002C51.0779 34.0004 50.8867 33.521 50.5464 33.1674L43.6927 26.0521C43.3518 25.6983 42.8893 25.4995 42.4071 25.4995C41.9249 25.4995 41.4624 25.6983 41.1214 26.0521C40.7804 26.4059 40.5889 26.8858 40.5889 27.3861C40.5889 27.8865 40.7804 28.3664 41.1214 28.7202L44.873 32.6142L30.8955 32.6142C30.4135 32.6142 29.9512 32.8129 29.6103 33.1666C29.2694 33.5202 29.0779 34 29.0779 34.5002C29.0779 35.0004 29.2694 35.4801 29.6103 35.8338C29.9512 36.1875 30.4135 36.3862 30.8955 36.3862L44.873 36.3862L41.1214 40.2789C40.9526 40.4541 40.8187 40.6621 40.7273 40.8909C40.6359 41.1198 40.5889 41.3652 40.5889 41.6129C40.5889 41.8607 40.6359 42.106 40.7273 42.3349C40.8187 42.5638 40.9526 42.7718 41.1214 42.947C41.2903 43.1221 41.4907 43.2611 41.7113 43.3559C41.9319 43.4507 42.1683 43.4995 42.4071 43.4995C42.6459 43.4995 42.8823 43.4507 43.1029 43.3559C43.3235 43.2611 43.5239 43.1221 43.6927 42.947L50.5464 35.8329Z" fill="white"/>
</g>
<path d="M69.6103 25.2H79.6903C81.3703 25.2 82.5863 25.584 83.3383 26.352C84.1063 27.104 84.4903 28.32 84.4903 30V32.4C84.4903 34.08 84.1063 35.304 83.3383 36.072C82.5863 36.824 81.3703 37.2 79.6903 37.2H73.9303V42H69.6103V25.2ZM80.1703 30C80.1703 29.04 79.6903 28.56 78.7303 28.56H73.9303V33.84H78.7303C79.6903 33.84 80.1703 33.36 80.1703 32.4V30ZM93.4894 38.76C94.3374 38.76 95.2974 38.6 96.3694 38.28V29.28H100.569V42H96.8494L96.6094 40.8C95.8574 41.296 95.0814 41.664 94.2814 41.904C93.4974 42.128 92.8334 42.24 92.2894 42.24H91.2094C90.1214 42.24 89.2494 41.912 88.5934 41.256C87.9374 40.6 87.6094 39.728 87.6094 38.64V29.28H91.8094V37.92C91.8094 38.16 91.8894 38.36 92.0494 38.52C92.2094 38.68 92.4094 38.76 92.6494 38.76H93.4894ZM110.641 42C109.569 42.16 108.545 42.24 107.569 42.24C106.609 42.24 105.801 41.912 105.145 41.256C104.489 40.6 104.161 39.728 104.161 38.64V25.2H108.361V38.04C108.361 38.28 108.441 38.48 108.601 38.64C108.761 38.8 108.961 38.88 109.201 38.88H110.641V42ZM118.557 38.88C119.405 38.88 120.365 38.72 121.437 38.4V36.96H117.957C117.717 36.96 117.517 37.04 117.357 37.2C117.197 37.36 117.117 37.56 117.117 37.8V38.04C117.117 38.28 117.197 38.48 117.357 38.64C117.517 38.8 117.717 38.88 117.957 38.88H118.557ZM114.117 29.52C117.045 29.2 119.685 29.04 122.037 29.04C123.125 29.04 123.997 29.368 124.653 30.024C125.309 30.68 125.637 31.552 125.637 32.64V42H121.917L121.677 40.8C120.925 41.296 120.149 41.664 119.349 41.904C118.565 42.128 117.901 42.24 117.357 42.24H116.517C115.429 42.24 114.557 41.912 113.901 41.256C113.245 40.6 112.917 39.728 112.917 38.64V37.56C112.917 36.472 113.245 35.6 113.901 34.944C114.557 34.288 115.429 33.96 116.517 33.96H121.437V33C121.437 32.76 121.357 32.56 121.197 32.4C121.037 32.24 120.837 32.16 120.597 32.16C119.557 32.16 118.405 32.208 117.141 32.304C115.893 32.4 114.885 32.472 114.117 32.52V29.52ZM136.311 32.76C135.303 32.76 134.263 33 133.191 33.48V42H128.991V29.28H132.711L132.951 30.84C134.327 29.64 135.767 29.04 137.271 29.04H138.351V32.76H136.311Z" fill="white"/>
<defs>
<clipPath id="clip0_1_36">
<rect width="24" height="24" fill="white" transform="translate(28 22.5)"/>
</clipPath>
</defs>
</svg>
