<svg width="207" height="69" viewBox="0 0 207 69" fill="none" xmlns="http://www.w3.org/2000/svg">
<rect x="2" y="2" width="203" height="65" rx="18" stroke="white" stroke-width="4"/>
<path d="M43.3048 32.0556C44.464 32.0556 45.4048 33.0138 45.4048 34.1944V39.9988C45.4048 41.4578 44.8357 42.857 43.8228 43.8887C42.8099 44.9204 41.4361 45.5 40.0036 45.5C38.5711 45.5 37.1973 44.9204 36.1844 43.8887C35.1715 42.857 34.6024 41.4578 34.6024 39.9988V34.1944C34.6024 33.0138 35.542 32.0556 36.7024 32.0556H43.3048ZM43.3048 33.8889H36.7024C36.6228 33.8889 36.5465 33.9211 36.4903 33.9784C36.434 34.0357 36.4024 34.1134 36.4024 34.1944V39.9988C36.4024 40.9716 36.7818 41.9045 37.4572 42.5924C38.1325 43.2802 39.0485 43.6667 40.0036 43.6667C40.9587 43.6667 41.8747 43.2802 42.55 42.5924C43.2254 41.9045 43.6048 40.9716 43.6048 39.9988V34.1944C43.6048 34.1134 43.5732 34.0357 43.5169 33.9784C43.4607 33.9211 43.3844 33.8889 43.3048 33.8889ZM30.1 32.0556H34.1572C33.734 32.5764 33.4754 33.2155 33.4156 33.8889H30.1C30.0204 33.8889 29.9441 33.9211 29.8879 33.9784C29.8316 34.0357 29.8 34.1134 29.8 34.1944V38.1654C29.7997 38.6274 29.9022 39.0834 30.0999 39.4991C30.2975 39.9149 30.5852 40.2796 30.9411 40.5658C31.2971 40.852 31.7122 41.0523 32.1551 41.1516C32.5981 41.2509 33.0573 41.2466 33.4984 41.1391C33.6004 41.7551 33.7864 42.343 34.042 42.8893C33.6452 42.9993 33.2312 43.0547 32.8 43.0556C32.1696 43.0556 31.5453 42.9291 30.9628 42.6833C30.3804 42.4375 29.8512 42.0773 29.4055 41.6232C28.9597 41.1691 28.6062 40.63 28.365 40.0367C28.1239 39.4434 27.9998 38.8076 28 38.1654V34.1944C28 33.0138 28.9408 32.0556 30.1 32.0556ZM45.85 32.0556H49.9C51.0592 32.0556 52 33.0138 52 34.1944V38.1667C52.0002 38.9161 51.8312 39.6555 51.5061 40.3278C51.181 41.0001 50.7085 41.5873 50.1251 42.044C49.5417 42.5007 48.863 42.8147 48.1415 42.9617C47.42 43.1087 46.675 43.0848 45.964 42.8918C46.2208 42.3442 46.4068 41.7563 46.51 41.1403C46.7316 41.1941 46.9616 41.2214 47.2 41.2222C47.9956 41.2222 48.7587 40.9003 49.3213 40.3273C49.8839 39.7542 50.2 38.977 50.2 38.1667V34.1944C50.2 34.1134 50.1684 34.0357 50.1121 33.9784C50.0559 33.9211 49.9796 33.8889 49.9 33.8889H46.5916C46.5318 33.2155 46.2732 32.5764 45.85 32.0556ZM40 23.5C40.9548 23.5 41.8705 23.8863 42.5456 24.5739C43.2207 25.2616 43.6 26.1942 43.6 27.1667C43.6 28.1391 43.2207 29.0718 42.5456 29.7594C41.8705 30.447 40.9548 30.8333 40 30.8333C39.0452 30.8333 38.1295 30.447 37.4544 29.7594C36.7793 29.0718 36.4 28.1391 36.4 27.1667C36.4 26.1942 36.7793 25.2616 37.4544 24.5739C38.1295 23.8863 39.0452 23.5 40 23.5ZM47.8 24.7222C48.5956 24.7222 49.3587 25.0441 49.9213 25.6172C50.4839 26.1902 50.8 26.9674 50.8 27.7778C50.8 28.5882 50.4839 29.3654 49.9213 29.9384C49.3587 30.5114 48.5956 30.8333 47.8 30.8333C47.0044 30.8333 46.2413 30.5114 45.6787 29.9384C45.1161 29.3654 44.8 28.5882 44.8 27.7778C44.8 26.9674 45.1161 26.1902 45.6787 25.6172C46.2413 25.0441 47.0044 24.7222 47.8 24.7222ZM32.2 24.7222C32.9956 24.7222 33.7587 25.0441 34.3213 25.6172C34.8839 26.1902 35.2 26.9674 35.2 27.7778C35.2 28.5882 34.8839 29.3654 34.3213 29.9384C33.7587 30.5114 32.9956 30.8333 32.2 30.8333C31.4044 30.8333 30.6413 30.5114 30.0787 29.9384C29.5161 29.3654 29.2 28.5882 29.2 27.7778C29.2 26.9674 29.5161 26.1902 30.0787 25.6172C30.6413 25.0441 31.4044 24.7222 32.2 24.7222ZM40 25.3333C39.5226 25.3333 39.0648 25.5265 38.7272 25.8703C38.3896 26.2141 38.2 26.6804 38.2 27.1667C38.2 27.6529 38.3896 28.1192 38.7272 28.463C39.0648 28.8068 39.5226 29 40 29C40.4774 29 40.9352 28.8068 41.2728 28.463C41.6104 28.1192 41.8 27.6529 41.8 27.1667C41.8 26.6804 41.6104 26.2141 41.2728 25.8703C40.9352 25.5265 40.4774 25.3333 40 25.3333ZM47.8 26.5556C47.4817 26.5556 47.1765 26.6843 46.9515 26.9135C46.7264 27.1427 46.6 27.4536 46.6 27.7778C46.6 28.1019 46.7264 28.4128 46.9515 28.642C47.1765 28.8712 47.4817 29 47.8 29C48.1183 29 48.4235 28.8712 48.6485 28.642C48.8736 28.4128 49 28.1019 49 27.7778C49 27.4536 48.8736 27.1427 48.6485 26.9135C48.4235 26.6843 48.1183 26.5556 47.8 26.5556ZM32.2 26.5556C31.8817 26.5556 31.5765 26.6843 31.3515 26.9135C31.1264 27.1427 31 27.4536 31 27.7778C31 28.1019 31.1264 28.4128 31.3515 28.642C31.5765 28.8712 31.8817 29 32.2 29C32.5183 29 32.8235 28.8712 33.0485 28.642C33.2736 28.4128 33.4 28.1019 33.4 27.7778C33.4 27.4536 33.2736 27.1427 33.0485 26.9135C32.8235 26.6843 32.5183 26.5556 32.2 26.5556Z" fill="white"/>
<path d="M82.8055 41.76C79.2375 42.08 76.2775 42.24 73.9255 42.24C72.3575 42.24 71.2055 41.872 70.4695 41.136C69.7335 40.4 69.3655 39.248 69.3655 37.68V30C69.3655 28.32 69.7415 27.104 70.4935 26.352C71.2615 25.584 72.4855 25.2 74.1655 25.2H82.8055V28.56H75.1255C74.1655 28.56 73.6855 29.04 73.6855 30V37.68C73.6855 38.048 73.7895 38.344 73.9975 38.568C74.2215 38.776 74.5015 38.88 74.8375 38.88C75.1735 38.88 75.5415 38.88 75.9415 38.88C76.3415 38.864 76.7575 38.848 77.1895 38.832C77.6215 38.816 78.0535 38.8 78.4855 38.784C78.9335 38.768 79.5015 38.736 80.1895 38.688C80.8935 38.64 81.7655 38.584 82.8055 38.52V41.76ZM93.0083 32.76C92.0003 32.76 90.9603 33 89.8883 33.48V42H85.6883V29.28H89.4083L89.6483 30.84C91.0243 29.64 92.4643 29.04 93.9683 29.04H95.0483V32.76H93.0083ZM102.379 32.04C101.739 32.04 101.419 32.36 101.419 33V34.32H105.499V33C105.499 32.36 105.179 32.04 104.539 32.04H102.379ZM109.219 41.76C106.131 42.08 103.331 42.24 100.819 42.24C99.7306 42.24 98.8586 41.912 98.2026 41.256C97.5466 40.6 97.2186 39.728 97.2186 38.64V32.88C97.2186 31.68 97.5546 30.744 98.2266 30.072C98.9146 29.384 99.8586 29.04 101.059 29.04H105.859C107.059 29.04 107.995 29.384 108.667 30.072C109.355 30.744 109.699 31.68 109.699 32.88V37.32H101.419V38.28C101.419 38.52 101.499 38.72 101.659 38.88C101.819 39.04 102.019 39.12 102.259 39.12C103.843 39.12 106.163 39 109.219 38.76V41.76ZM101.539 28.296L102.979 24.216H107.299L104.659 28.296H101.539ZM122.049 42L121.809 40.8C121.057 41.296 120.281 41.664 119.481 41.904C118.697 42.128 118.033 42.24 117.489 42.24H116.409C115.321 42.24 114.449 41.912 113.793 41.256C113.137 40.6 112.809 39.728 112.809 38.64V33.12C112.809 31.92 113.145 30.984 113.817 30.312C114.505 29.624 115.449 29.28 116.649 29.28H121.569V25.2H125.769V42H122.049ZM118.689 38.76C119.537 38.76 120.497 38.6 121.569 38.28V32.52H117.969C117.329 32.52 117.009 32.84 117.009 33.48V37.92C117.009 38.16 117.089 38.36 117.249 38.52C117.409 38.68 117.609 38.76 117.849 38.76H118.689ZM134.646 29.76V42H130.446V33H128.646V29.76H134.646ZM130.446 24.96H134.646V28.32H130.446V24.96ZM147.134 42C145.582 42.16 144.062 42.24 142.574 42.24C141.486 42.24 140.614 41.912 139.958 41.256C139.302 40.6 138.974 39.728 138.974 38.64V32.52H137.534V29.28H138.974L139.454 26.4H143.174V29.28H146.174V32.52H143.174V38.04C143.174 38.28 143.254 38.48 143.414 38.64C143.574 38.8 143.774 38.88 144.014 38.88H147.134V42ZM162.515 38.4C162.515 39.6 162.171 40.544 161.483 41.232C160.811 41.904 159.875 42.24 158.675 42.24H153.155C151.955 42.24 151.011 41.904 150.323 41.232C149.651 40.544 149.315 39.6 149.315 38.4V32.88C149.315 31.68 149.651 30.744 150.323 30.072C151.011 29.384 151.955 29.04 153.155 29.04H158.675C159.875 29.04 160.811 29.384 161.483 30.072C162.171 30.744 162.515 31.68 162.515 32.88V38.4ZM158.315 33.24C158.315 32.6 157.995 32.28 157.355 32.28H154.475C153.835 32.28 153.515 32.6 153.515 33.24V38.04C153.515 38.68 153.835 39 154.475 39H157.355C157.995 39 158.315 38.68 158.315 38.04V33.24ZM165.393 38.64C168.641 38.88 171.201 39 173.073 39C173.313 39 173.513 38.92 173.673 38.76C173.833 38.6 173.913 38.4 173.913 38.16V37.32H168.753C167.665 37.32 166.793 36.992 166.137 36.336C165.481 35.68 165.153 34.808 165.153 33.72V32.88C165.153 31.792 165.481 30.92 166.137 30.264C166.793 29.608 167.665 29.28 168.753 29.28H176.913V32.4H170.193C169.953 32.4 169.753 32.48 169.593 32.64C169.433 32.8 169.353 33 169.353 33.24C169.353 33.48 169.433 33.68 169.593 33.84C169.753 34 169.953 34.08 170.193 34.08H174.513C175.601 34.08 176.473 34.408 177.129 35.064C177.785 35.72 178.113 36.592 178.113 37.68V38.64C178.113 39.728 177.785 40.6 177.129 41.256C176.473 41.912 175.601 42.24 174.513 42.24C171.681 42.24 168.641 42.08 165.393 41.76V38.64Z" fill="white"/>
</svg>
