<svg width="388" height="121" viewBox="0 0 388 121" fill="none" xmlns="http://www.w3.org/2000/svg">
<rect width="388" height="121" rx="8" fill="white" fill-opacity="0.2"/>
<rect x="0.5" y="0.5" width="387" height="120" rx="7.5" stroke="white" stroke-opacity="0.6"/>
<path d="M128.671 20H137.071C138.471 20 139.484 20.32 140.111 20.96C140.751 21.5867 141.071 22.6 141.071 24V26C141.071 27.4 140.751 28.42 140.111 29.06C139.484 29.6867 138.471 30 137.071 30H132.271V34H128.671V20ZM137.471 24C137.471 23.2 137.071 22.8 136.271 22.8H132.271V27.2H136.271C137.071 27.2 137.471 26.8 137.471 26V24ZM152.87 23.8C152.87 23 152.47 22.6 151.67 22.6H148.27C147.47 22.6 147.07 23 147.07 23.8V30.2C147.07 31 147.47 31.4 148.27 31.4H151.67C152.47 31.4 152.87 31 152.87 30.2V23.8ZM156.47 30.2C156.47 31.6 156.15 32.62 155.51 33.26C154.883 33.8867 153.87 34.2 152.47 34.2H147.47C146.07 34.2 145.05 33.8867 144.41 33.26C143.783 32.62 143.47 31.6 143.47 30.2V23.8C143.47 22.4 143.783 21.3867 144.41 20.76C145.05 20.12 146.07 19.8 147.47 19.8H152.47C153.87 19.8 154.883 20.12 155.51 20.76C156.15 21.3867 156.47 22.4 156.47 23.8V30.2ZM171.679 34H167.879L163.079 25.6V34H159.479V20H163.279L168.079 28.4V20H171.679V34ZM181.889 34H178.289V22.8H174.089V20H186.089V22.8H181.889V34ZM197.491 20H201.091V30.2C201.091 31.6 200.771 32.62 200.131 33.26C199.504 33.8867 198.491 34.2 197.091 34.2H192.491C191.091 34.2 190.071 33.8867 189.431 33.26C188.804 32.62 188.491 31.6 188.491 30.2V20H192.091V30.2C192.091 31 192.491 31.4 193.291 31.4H196.291C197.091 31.4 197.491 31 197.491 30.2V20ZM206.6 34H202.7L208 20H212L217.3 34H213.4L212.5 31.5H207.5L206.6 34ZM208.4 28.9H211.6L210 24.2L208.4 28.9ZM229.709 33.8C226.736 34.0667 224.269 34.2 222.309 34.2C221.002 34.2 220.042 33.8933 219.429 33.28C218.816 32.6667 218.509 31.7067 218.509 30.4V24C218.509 22.6 218.822 21.5867 219.449 20.96C220.089 20.32 221.109 20 222.509 20H229.709V22.8H223.309C222.509 22.8 222.109 23.2 222.109 24V30.4C222.109 30.7067 222.196 30.9533 222.369 31.14C222.556 31.3133 222.789 31.4 223.069 31.4C223.349 31.4 223.656 31.4 223.989 31.4C224.322 31.3867 224.669 31.3733 225.029 31.36C225.389 31.3467 225.749 31.3333 226.109 31.32C226.482 31.3067 226.956 31.28 227.529 31.24C228.116 31.2 228.842 31.1533 229.709 31.1V33.8ZM224.909 33.6V34.4H225.109C225.762 34.4 226.256 34.56 226.589 34.88C226.936 35.2 227.109 35.64 227.109 36.2C227.109 36.76 226.936 37.2 226.589 37.52C226.256 37.84 225.762 38 225.109 38H222.709V36.7H224.709C225.176 36.7 225.409 36.5333 225.409 36.2C225.409 35.8667 225.176 35.7 224.709 35.7H223.209V33.6H224.909ZM234.811 34H230.911L236.211 20H240.211L245.511 34H241.611L240.711 31.5H235.711L234.811 34ZM236.611 28.9H239.811L238.211 24.2L236.611 28.9ZM239.411 17.18C239.838 17.18 240.171 16.9133 240.411 16.38L241.711 17.18C241.591 17.6067 241.431 17.98 241.231 18.3C240.765 19.0867 240.158 19.48 239.411 19.48C239.131 19.48 238.885 19.4267 238.671 19.32C238.471 19.2133 238.278 19.1 238.091 18.98C237.918 18.86 237.745 18.7467 237.571 18.64C237.398 18.5333 237.211 18.48 237.011 18.48C236.585 18.48 236.251 18.7467 236.011 19.28L234.711 18.48C234.925 17.6533 235.318 17.0067 235.891 16.54C236.185 16.3 236.511 16.18 236.871 16.18C237.245 16.18 237.531 16.2333 237.731 16.34C237.945 16.4467 238.138 16.56 238.311 16.68C238.498 16.8 238.678 16.9133 238.851 17.02C239.025 17.1267 239.211 17.18 239.411 17.18ZM256.12 23.8C256.12 23 255.72 22.6 254.92 22.6H251.52C250.72 22.6 250.32 23 250.32 23.8V30.2C250.32 31 250.72 31.4 251.52 31.4H254.92C255.72 31.4 256.12 31 256.12 30.2V23.8ZM259.72 30.2C259.72 31.6 259.4 32.62 258.76 33.26C258.133 33.8867 257.12 34.2 255.72 34.2H250.72C249.32 34.2 248.3 33.8867 247.66 33.26C247.033 32.62 246.72 31.6 246.72 30.2V23.8C246.72 22.4 247.033 21.3867 247.66 20.76C248.3 20.12 249.32 19.8 250.72 19.8H255.72C257.12 19.8 258.133 20.12 258.76 20.76C259.4 21.3867 259.72 22.4 259.72 23.8V30.2Z" fill="white"/>
</svg>
